<svg> 
<path xmlns="http://www.w3.org/2000/svg" id="path1" d="M163.500 6.661 L 163.083 6.982 163.088 12.391 C 163.093 18.623,163.141 18.433,161.731 17.743 C 161.283 17.523,160.820 17.341,160.702 17.339 C 160.359 17.330,159.667 16.816,159.667 16.568 C 159.667 16.182,158.809 15.884,157.365 15.768 C 155.856 15.647,155.401 15.460,155.260 14.899 C 155.141 14.425,154.388 14.167,153.119 14.167 C 152.571 14.167,151.626 14.085,151.019 13.985 C 148.988 13.651,149.152 13.749,149.215 12.913 L 149.271 12.167 148.594 12.172 C 148.221 12.175,147.771 12.287,147.593 12.422 C 147.201 12.719,138.667 12.793,138.667 12.500 C 138.667 12.408,138.568 12.333,138.447 12.333 C 138.297 12.333,138.242 12.524,138.275 12.935 C 138.313 13.414,138.223 13.636,137.834 14.025 C 137.153 14.706,137.142 14.837,137.199 21.875 C 137.232 25.986,137.192 28.172,137.083 28.180 C 134.130 28.419,132.357 28.534,130.667 28.597 C 128.065 28.693,127.895 28.731,127.766 29.246 C 127.696 29.526,127.513 29.692,127.206 29.754 C 125.709 30.057,124.736 30.394,124.470 30.701 C 124.180 31.036,124.167 32.032,124.167 53.609 L 124.167 76.167 123.375 76.181 C 122.940 76.189,120.896 76.273,118.833 76.367 C 112.430 76.661,93.918 76.473,93.555 76.110 C 93.525 76.080,93.471 75.800,93.436 75.486 C 93.400 75.173,93.362 74.866,93.352 74.805 C 93.303 74.509,92.283 74.486,91.700 74.769 C 90.365 75.416,84.997 74.867,85.135 74.097 C 85.164 73.938,85.097 73.700,84.987 73.567 C 84.824 73.371,84.835 73.345,85.047 73.426 C 85.230 73.496,85.295 73.438,85.264 73.230 C 85.240 73.068,85.123 72.902,85.004 72.862 C 84.857 72.814,84.832 72.865,84.925 73.020 C 85.042 73.214,85.019 73.214,84.779 73.019 C 84.533 72.819,84.449 72.828,84.161 73.088 C 83.301 73.867,77.667 73.300,77.667 72.434 C 77.667 72.123,76.880 71.888,75.417 71.763 C 74.007 71.643,72.833 71.329,72.833 71.073 C 72.833 70.458,70.525 69.915,69.260 70.233 C 68.519 70.419,68.695 71.632,69.528 72.077 C 69.868 72.260,70.255 72.649,70.402 72.956 C 70.547 73.259,70.855 73.580,71.087 73.668 C 71.618 73.870,72.093 74.318,72.235 74.750 C 72.295 74.933,72.719 75.266,73.177 75.489 C 73.651 75.719,74.099 76.077,74.214 76.318 C 74.366 76.636,74.627 76.791,75.250 76.935 C 76.477 77.219,76.636 77.314,76.749 77.831 C 76.863 78.350,77.286 78.575,78.490 78.760 C 79.292 78.883,79.560 79.069,79.737 79.624 C 79.860 80.014,80.030 80.088,81.167 80.248 C 82.292 80.407,82.734 80.626,82.961 81.139 C 83.133 81.527,83.323 81.634,84.125 81.791 C 86.982 82.350,87.020 82.362,87.201 82.759 C 87.425 83.250,87.426 83.250,89.603 83.585 C 91.434 83.867,92.167 84.149,92.167 84.572 C 92.167 84.814,93.332 85.049,95.569 85.258 C 97.161 85.407,98.215 86.141,97.485 86.593 C 97.410 86.639,97.390 86.787,97.442 86.922 C 97.558 87.224,98.610 87.254,98.708 86.958 C 98.805 86.666,101.609 86.588,103.083 86.836 C 103.725 86.944,104.790 87.068,105.449 87.112 L 106.649 87.192 106.699 87.888 C 106.761 88.738,107.779 89.200,108.230 88.582 C 108.522 88.183,115.914 88.245,117.167 88.657 C 117.532 88.777,118.680 88.832,120.234 88.802 C 122.777 88.754,123.263 88.892,122.879 89.552 C 122.742 89.788,123.369 90.333,123.776 90.333 L 124.167 90.333 124.167 93.559 L 124.167 96.785 121.542 96.877 C 118.635 96.979,118.637 96.980,118.616 96.016 L 118.601 95.333 117.326 95.333 C 116.476 95.333,115.868 95.425,115.501 95.608 C 114.856 95.930,110.366 95.856,107.806 95.482 C 106.423 95.280,106.359 95.251,106.269 94.802 C 106.182 94.369,106.115 94.332,105.379 94.321 C 102.054 94.272,100.170 93.919,99.937 93.302 C 99.647 92.534,96.926 92.750,96.613 93.565 C 96.482 93.907,97.255 94.402,98.458 94.748 C 98.665 94.807,98.833 94.967,98.833 95.102 C 98.833 95.464,99.598 96.167,99.991 96.167 C 100.630 96.167,101.644 96.720,101.745 97.125 C 101.852 97.550,102.423 97.833,103.172 97.833 C 103.847 97.833,104.809 98.326,104.937 98.738 C 105.075 99.181,105.306 99.328,105.868 99.331 C 106.698 99.335,108.167 99.879,108.167 100.181 C 108.167 100.584,108.484 100.777,109.333 100.888 C 111.746 101.203,112.833 101.541,112.833 101.977 C 112.833 102.513,113.200 102.667,114.492 102.670 C 115.184 102.672,116.275 102.756,116.917 102.857 C 117.558 102.958,118.383 103.088,118.750 103.146 C 119.185 103.214,119.417 103.337,119.417 103.500 C 119.417 104.128,119.827 104.249,122.154 104.301 C 125.304 104.372,125.725 104.575,124.750 105.550 C 124.212 106.088,124.167 106.211,124.167 107.144 C 124.167 108.440,124.009 108.532,121.556 108.671 C 118.268 108.857,117.582 110.375,120.630 110.719 C 121.537 110.822,121.720 110.935,122.206 111.696 C 122.444 112.067,122.651 112.159,123.454 112.245 C 125.581 112.474,126.261 112.816,125.375 113.212 C 124.123 113.771,124.167 113.519,124.167 120.268 C 124.167 127.115,124.071 126.666,125.531 126.668 C 125.926 126.668,126.465 126.781,126.727 126.918 C 127.323 127.228,128.836 127.269,128.533 126.967 C 128.270 126.703,128.276 125.714,128.542 125.623 C 128.656 125.583,129.404 125.587,130.204 125.632 C 131.130 125.683,131.938 125.634,132.430 125.496 C 132.950 125.351,134.441 125.275,137.006 125.265 L 140.811 125.250 141.290 124.792 C 141.802 124.301,143.388 124.121,143.776 124.509 C 144.010 124.743,145.652 124.748,145.884 124.516 C 146.264 124.136,146.744 124.315,147.665 125.182 C 147.842 125.348,148.399 125.485,149.160 125.549 C 150.309 125.645,150.800 125.801,150.404 125.944 C 150.305 125.979,150.260 126.240,150.302 126.528 C 150.352 126.869,150.317 127.010,150.201 126.938 C 150.103 126.877,149.977 126.902,149.922 126.992 C 149.779 127.222,150.994 127.117,151.464 126.858 C 152.332 126.381,159.823 126.868,159.839 127.404 C 159.858 128.075,160.232 128.178,162.856 128.237 C 164.265 128.268,165.679 128.384,166.000 128.495 C 166.321 128.605,166.696 128.732,166.833 128.776 C 167.189 128.889,166.790 129.089,165.917 129.235 C 165.550 129.297,165.043 129.428,164.790 129.528 C 164.537 129.627,163.681 129.830,162.887 129.979 C 160.207 130.482,161.373 131.282,164.953 131.396 C 167.548 131.479,167.650 131.436,167.806 130.163 C 167.950 128.986,168.491 128.614,169.164 129.230 C 169.395 129.441,169.866 129.783,170.212 129.990 C 170.558 130.196,170.951 130.577,171.085 130.836 C 171.304 131.260,171.439 131.317,172.456 131.419 C 174.391 131.613,175.242 131.880,175.305 132.315 C 175.375 132.794,176.219 133.167,177.234 133.167 C 178.237 133.167,178.833 133.411,178.833 133.823 C 178.833 134.246,179.256 134.469,180.458 134.679 C 181.635 134.884,182.167 135.138,182.167 135.495 C 182.167 135.894,182.507 136.167,183.003 136.167 C 183.755 136.167,185.167 136.660,185.167 136.923 C 185.167 137.469,185.801 137.833,186.750 137.833 C 187.638 137.833,187.667 137.848,187.669 138.292 C 187.674 139.061,187.915 139.295,188.323 138.926 C 188.512 138.755,188.667 138.522,188.667 138.409 C 188.667 138.182,189.031 138.000,189.486 138.000 C 189.646 138.000,190.019 138.300,190.313 138.667 C 190.608 139.033,190.926 139.333,191.019 139.333 C 191.113 139.333,191.513 139.671,191.908 140.083 C 192.303 140.496,192.717 140.833,192.828 140.833 C 193.096 140.833,193.654 141.514,193.661 141.849 C 193.668 142.161,194.068 142.525,194.704 142.795 C 194.953 142.902,195.201 143.163,195.255 143.377 C 195.501 144.359,196.833 144.114,196.833 143.086 C 196.833 142.447,197.191 142.210,198.292 142.118 C 199.061 142.054,199.333 142.086,199.333 142.240 C 199.333 142.685,199.888 143.529,200.278 143.677 C 200.912 143.918,200.974 143.884,201.346 143.094 C 201.537 142.687,201.894 142.227,202.139 142.073 C 202.588 141.789,203.833 140.500,203.833 140.318 C 203.833 140.264,204.137 140.120,204.508 139.997 C 204.919 139.862,205.289 139.595,205.454 139.314 C 205.669 138.951,205.788 138.887,206.019 139.010 C 206.656 139.351,208.667 139.075,208.667 138.646 C 208.667 138.299,209.444 137.850,210.226 137.745 C 211.079 137.631,211.667 137.294,211.667 136.918 C 211.667 136.652,212.288 136.386,213.237 136.243 C 213.870 136.148,214.113 136.007,214.525 135.494 C 214.972 134.937,215.163 134.839,216.130 134.671 C 217.314 134.465,217.833 134.255,217.833 133.982 C 217.833 133.505,218.756 133.172,220.726 132.941 C 221.435 132.857,221.606 132.738,221.692 132.267 C 221.765 131.870,222.741 131.515,224.072 131.400 C 225.237 131.300,225.333 131.255,225.333 130.807 C 225.333 130.267,226.376 129.333,226.977 129.333 C 227.318 129.333,227.548 129.222,227.667 129.000 C 227.782 128.784,228.016 128.667,228.329 128.667 C 228.962 128.667,229.098 128.913,228.642 129.232 C 228.364 129.427,228.261 129.704,228.202 130.410 L 228.125 131.333 229.521 131.369 C 231.634 131.423,232.467 131.348,233.486 131.010 C 233.998 130.840,234.679 130.642,235.000 130.569 L 235.583 130.435 234.733 130.322 C 234.265 130.260,233.389 130.012,232.788 129.771 C 232.186 129.530,231.518 129.330,231.305 129.326 C 231.091 129.322,230.692 129.218,230.417 129.096 C 229.871 128.853,229.819 128.908,231.000 128.487 C 231.229 128.405,231.567 128.347,231.750 128.357 C 231.933 128.367,233.231 128.318,234.634 128.246 L 237.185 128.116 237.275 127.669 C 237.423 126.925,245.216 126.249,245.457 126.958 C 245.535 127.187,248.160 127.268,248.175 127.042 C 248.179 126.973,248.200 126.542,248.222 126.083 C 248.269 125.071,248.745 124.234,249.094 124.546 C 250.010 125.366,250.259 125.460,251.137 125.315 C 252.389 125.109,253.581 125.148,254.224 125.417 C 254.712 125.620,255.765 125.667,259.911 125.667 C 265.317 125.667,265.141 125.642,265.017 126.382 C 264.895 127.115,265.987 127.397,266.996 126.893 C 267.600 126.592,270.363 126.647,270.943 126.971 C 271.418 127.237,272.132 126.775,272.251 126.125 C 272.306 125.827,272.328 122.990,272.300 119.820 L 272.250 114.057 271.775 113.434 C 271.197 112.677,271.341 112.498,272.880 112.054 C 273.601 111.846,273.894 111.668,274.048 111.346 C 274.220 110.985,274.425 110.888,275.335 110.736 C 277.031 110.453,277.167 110.383,277.167 109.800 C 277.167 108.710,274.941 108.204,273.389 108.941 C 272.497 109.364,272.250 109.021,272.250 107.356 C 272.250 106.185,272.203 105.996,271.775 105.434 C 271.319 104.837,271.312 104.802,271.608 104.578 C 272.297 104.056,275.376 104.054,275.762 104.575 C 276.044 104.956,276.912 104.794,276.938 104.356 C 276.949 104.160,276.968 103.825,276.979 103.612 C 277.006 103.104,277.994 102.867,280.689 102.722 C 282.185 102.641,282.720 102.551,282.903 102.350 C 284.020 101.114,283.924 101.167,285.055 101.167 C 286.341 101.167,287.416 100.818,287.857 100.258 C 288.054 100.007,288.423 99.807,288.799 99.747 C 289.139 99.693,289.547 99.578,289.706 99.491 C 289.865 99.404,290.179 99.333,290.403 99.333 C 290.843 99.333,291.333 98.942,291.333 98.590 C 291.333 98.338,292.309 97.833,292.796 97.833 C 293.559 97.833,294.161 97.613,294.262 97.297 C 294.455 96.687,295.020 96.290,295.815 96.206 C 296.670 96.115,297.088 95.835,297.234 95.253 C 297.308 94.958,297.551 94.796,298.252 94.575 C 299.413 94.210,299.651 93.673,298.928 93.051 C 298.195 92.420,296.167 92.867,296.167 93.659 C 296.167 94.173,291.268 94.454,290.718 93.972 C 290.279 93.587,289.589 93.687,289.563 94.139 C 289.551 94.337,289.532 94.677,289.521 94.894 C 289.483 95.608,281.277 96.235,281.043 95.542 C 280.948 95.261,278.313 95.253,278.033 95.533 C 277.923 95.643,277.833 95.970,277.833 96.259 L 277.833 96.785 275.214 96.874 C 273.773 96.922,272.516 96.932,272.422 96.896 C 272.126 96.783,272.292 89.475,272.597 89.167 C 272.785 88.976,273.466 88.891,275.464 88.807 C 276.904 88.747,279.358 88.608,280.917 88.499 C 284.747 88.230,287.859 88.242,288.360 88.528 C 288.840 88.801,290.052 88.856,289.860 88.595 C 289.788 88.497,289.744 88.323,289.761 88.208 C 289.778 88.094,289.801 87.819,289.813 87.598 C 289.830 87.260,289.945 87.177,290.542 87.078 C 290.931 87.014,291.386 86.935,291.552 86.905 C 291.718 86.874,293.278 86.796,295.019 86.732 L 298.185 86.615 298.280 86.143 C 298.403 85.527,298.923 85.381,301.833 85.147 C 304.293 84.949,304.617 84.852,304.697 84.292 C 304.772 83.764,306.208 83.397,308.384 83.351 C 309.110 83.335,309.200 83.289,309.352 82.852 C 309.536 82.323,310.529 81.834,311.422 81.832 C 312.252 81.831,313.141 81.511,313.247 81.176 C 313.401 80.692,313.992 80.393,315.057 80.260 C 315.899 80.155,316.069 80.073,316.307 79.653 C 316.614 79.114,317.408 78.667,318.059 78.667 C 318.663 78.667,319.310 78.337,319.427 77.968 C 319.540 77.611,320.534 76.940,321.190 76.778 C 321.465 76.710,321.667 76.521,321.730 76.272 C 321.843 75.821,322.413 75.392,323.011 75.307 C 323.252 75.273,323.501 75.066,323.633 74.791 C 323.753 74.539,324.092 74.210,324.384 74.060 C 324.677 73.910,325.188 73.517,325.520 73.186 C 325.851 72.854,326.358 72.372,326.645 72.115 C 327.888 70.998,327.290 70.147,325.333 70.248 C 324.921 70.269,324.304 70.297,323.962 70.310 C 323.452 70.329,323.321 70.406,323.238 70.738 C 323.035 71.546,322.672 71.687,320.556 71.776 C 318.470 71.863,317.833 72.037,317.833 72.518 C 317.833 73.028,315.806 73.497,313.583 73.502 C 312.125 73.505,311.667 73.624,311.667 73.999 C 311.667 74.521,311.276 74.645,309.078 74.820 C 305.055 75.140,304.804 75.140,303.917 74.816 C 302.598 74.336,302.237 74.486,302.310 75.485 L 302.356 76.123 300.469 76.214 C 299.432 76.264,297.496 76.358,296.167 76.423 C 293.044 76.575,281.456 76.575,278.333 76.423 C 277.004 76.358,275.092 76.265,274.083 76.216 L 272.250 76.127 272.294 53.592 C 272.345 27.698,272.536 30.411,270.647 30.232 C 270.062 30.176,269.171 30.013,268.667 29.870 C 268.162 29.727,267.613 29.619,267.446 29.629 C 267.208 29.644,267.182 29.598,267.329 29.422 C 267.458 29.266,267.462 29.163,267.341 29.088 C 267.222 29.015,267.219 28.880,267.333 28.668 C 267.425 28.496,267.500 28.318,267.500 28.273 C 267.500 28.116,266.418 28.329,266.362 28.497 C 266.288 28.720,261.908 28.721,260.677 28.500 C 260.167 28.408,259.150 28.284,258.417 28.224 L 257.083 28.115 257.708 27.868 C 258.052 27.732,258.333 27.557,258.333 27.477 C 258.333 27.398,258.428 27.333,258.545 27.333 C 258.661 27.333,259.037 27.142,259.380 26.909 L 260.004 26.485 259.960 20.623 L 259.917 14.761 259.167 14.701 C 258.083 14.614,257.333 13.871,257.333 12.884 C 257.333 12.092,257.050 11.950,256.420 12.427 C 256.010 12.737,247.911 12.772,247.542 12.466 C 247.248 12.222,245.833 12.122,245.833 12.345 C 245.833 12.441,245.905 12.476,245.992 12.422 C 246.232 12.273,246.523 12.911,246.311 13.122 C 246.191 13.242,246.203 13.336,246.352 13.428 C 246.486 13.511,246.198 13.641,245.575 13.777 C 242.659 14.415,241.354 14.497,240.929 14.071 C 240.690 13.833,240.667 13.877,240.667 14.552 C 240.667 15.395,240.862 15.291,238.256 15.823 C 237.435 15.991,236.735 16.211,236.702 16.312 C 236.509 16.891,236.003 17.178,234.667 17.466 C 233.532 17.711,233.239 17.836,233.192 18.094 C 233.099 18.615,232.897 18.716,232.221 18.583 C 231.866 18.513,231.694 18.420,231.833 18.372 C 232.715 18.073,232.746 17.902,232.802 13.137 L 232.853 8.682 232.415 8.299 C 231.362 7.381,229.575 7.611,228.589 8.792 C 228.341 9.090,227.996 9.333,227.824 9.333 C 227.440 9.333,226.333 9.846,226.333 10.024 C 226.333 10.256,225.610 10.834,224.962 11.120 C 224.606 11.277,224.185 11.640,224.006 11.945 C 223.829 12.244,223.406 12.623,223.066 12.786 C 222.725 12.950,222.365 13.230,222.265 13.410 C 222.001 13.884,221.804 14.063,221.306 14.283 C 221.062 14.391,220.809 14.647,220.744 14.852 C 220.589 15.340,220.174 15.764,219.711 15.906 C 219.507 15.969,219.217 16.279,219.067 16.595 C 218.911 16.924,218.564 17.279,218.256 17.425 C 217.955 17.568,217.575 17.952,217.393 18.297 C 217.215 18.637,216.898 18.999,216.690 19.103 C 216.482 19.206,216.162 19.595,215.978 19.967 C 215.759 20.410,215.475 20.701,215.153 20.813 C 214.807 20.934,214.570 21.196,214.351 21.701 C 214.180 22.094,213.765 22.657,213.429 22.951 C 213.059 23.274,212.713 23.793,212.552 24.266 C 212.354 24.848,212.166 25.092,211.815 25.224 C 211.490 25.347,211.311 25.558,211.235 25.909 C 211.086 26.599,210.542 27.333,210.181 27.333 C 209.875 27.333,209.500 28.049,209.218 29.167 C 209.120 29.558,208.919 29.823,208.609 29.972 C 208.143 30.196,207.939 30.533,207.757 31.379 C 207.703 31.634,207.363 32.145,207.003 32.517 C 206.563 32.970,206.303 33.420,206.211 33.888 C 206.104 34.433,205.941 34.670,205.456 34.985 C 204.990 35.287,204.814 35.533,204.739 35.985 C 204.503 37.401,204.157 38.167,203.754 38.167 C 203.338 38.167,203.171 38.440,203.159 39.139 C 203.147 39.893,202.730 41.229,202.484 41.305 C 201.461 41.619,201.493 43.500,202.520 43.500 C 203.042 43.500,202.794 44.599,202.241 44.737 C 201.247 44.987,201.270 46.461,202.273 46.842 C 202.827 47.053,202.701 47.365,201.989 47.548 C 201.325 47.718,200.833 48.110,200.833 48.468 C 200.833 48.606,200.544 48.966,200.190 49.269 C 199.836 49.572,199.236 50.333,198.857 50.961 L 198.167 52.103 198.161 74.677 C 198.157 94.677,198.127 97.288,197.901 97.583 C 197.160 98.552,197.167 98.747,197.167 74.696 C 197.167 60.895,197.105 51.888,197.008 51.519 C 196.920 51.188,196.810 50.728,196.764 50.497 C 196.718 50.265,196.462 49.853,196.195 49.580 C 195.929 49.307,195.564 48.841,195.384 48.544 C 195.204 48.248,194.800 47.833,194.487 47.622 C 194.113 47.371,193.898 47.082,193.864 46.784 C 193.824 46.447,193.641 46.242,193.155 45.994 C 192.089 45.450,192.375 45.055,193.772 45.142 C 194.902 45.212,195.167 44.869,195.167 43.333 C 195.167 42.272,195.152 42.234,194.668 42.052 C 194.118 41.844,193.833 41.287,193.833 40.417 C 193.833 39.631,193.554 38.983,193.172 38.883 C 192.724 38.766,192.361 38.157,192.231 37.303 C 192.104 36.471,191.909 36.167,191.505 36.167 C 191.196 36.167,190.801 35.399,190.502 34.215 C 190.375 33.714,190.196 33.452,189.874 33.298 C 189.627 33.180,189.372 32.895,189.307 32.666 C 188.826 30.957,188.752 30.800,188.328 30.580 C 187.751 30.282,187.333 29.635,187.333 29.039 C 187.333 28.511,187.069 28.167,186.665 28.167 C 186.498 28.167,186.256 27.834,186.028 27.292 C 185.531 26.108,185.444 25.967,185.079 25.761 C 184.523 25.447,184.363 25.231,184.176 24.535 C 184.052 24.075,183.874 23.816,183.629 23.738 C 183.185 23.597,182.833 23.263,182.833 22.981 C 182.833 22.551,182.133 21.345,181.826 21.248 C 181.651 21.192,181.301 20.778,181.047 20.327 C 180.777 19.847,180.398 19.429,180.132 19.319 C 179.868 19.209,179.552 18.865,179.380 18.497 C 179.202 18.117,178.883 17.774,178.583 17.640 C 178.308 17.517,177.971 17.183,177.833 16.897 C 177.696 16.611,177.303 16.216,176.961 16.018 C 176.618 15.821,176.223 15.437,176.083 15.166 C 175.943 14.894,175.606 14.557,175.334 14.417 C 175.063 14.277,174.679 13.882,174.481 13.539 C 174.270 13.174,173.862 12.794,173.494 12.619 C 173.095 12.430,172.828 12.170,172.762 11.905 C 172.704 11.674,172.456 11.400,172.204 11.288 C 171.954 11.178,171.651 10.993,171.530 10.877 C 171.409 10.761,171.238 10.667,171.151 10.667 C 171.064 10.667,170.913 10.491,170.815 10.275 C 170.641 9.894,169.642 9.333,169.136 9.333 C 168.850 9.333,168.333 8.819,168.333 8.533 C 168.333 8.252,167.528 7.895,166.629 7.777 C 165.738 7.661,165.167 7.365,165.167 7.020 C 165.167 6.376,164.154 6.158,163.500 6.661 M164.681 7.523 C 165.232 8.163,165.357 8.224,166.264 8.299 C 167.246 8.380,167.400 8.470,167.991 9.312 C 168.123 9.500,168.439 9.700,168.692 9.756 C 168.946 9.811,169.476 10.170,169.870 10.553 C 170.264 10.937,170.942 11.400,171.375 11.583 C 171.809 11.767,172.164 12.007,172.165 12.118 C 172.167 12.397,173.008 13.158,173.434 13.267 C 173.628 13.317,173.949 13.648,174.148 14.003 C 174.347 14.357,174.673 14.699,174.873 14.762 C 175.331 14.908,175.592 15.169,175.738 15.627 C 175.801 15.827,176.129 16.146,176.468 16.338 C 176.806 16.530,177.199 16.919,177.340 17.203 C 177.482 17.486,177.844 17.850,178.146 18.012 C 178.465 18.183,178.837 18.593,179.032 18.988 C 179.228 19.383,179.523 19.708,179.733 19.761 C 179.967 19.819,180.241 20.160,180.501 20.718 C 180.723 21.194,181.184 21.851,181.525 22.179 C 181.866 22.507,182.195 22.972,182.256 23.214 C 182.372 23.675,182.632 23.953,183.226 24.248 C 183.423 24.345,183.661 24.665,183.757 24.957 C 183.940 25.519,184.564 26.333,184.812 26.333 C 184.893 26.333,185.051 26.577,185.162 26.875 C 185.681 28.262,185.879 28.603,186.304 28.847 C 186.592 29.012,186.848 29.372,186.994 29.815 C 187.122 30.204,187.457 30.715,187.738 30.951 C 188.298 31.422,188.667 32.146,188.667 32.775 C 188.667 33.033,188.930 33.435,189.392 33.884 C 189.967 34.443,190.141 34.748,190.232 35.356 C 190.345 36.108,190.520 36.370,191.308 36.966 C 191.674 37.244,191.867 37.801,192.114 39.292 C 192.260 40.174,191.131 40.107,190.710 39.208 C 190.537 38.841,190.203 38.480,189.897 38.333 C 189.611 38.196,189.216 37.803,189.018 37.461 C 188.818 37.114,188.483 36.794,188.262 36.738 C 188.016 36.676,187.718 36.361,187.479 35.911 C 187.266 35.511,186.924 35.093,186.719 34.983 C 186.513 34.873,186.157 34.499,185.927 34.153 C 185.698 33.807,185.303 33.424,185.049 33.302 C 184.794 33.180,184.490 32.879,184.372 32.634 C 184.254 32.386,183.872 32.061,183.516 31.904 C 183.104 31.722,182.791 31.434,182.645 31.102 C 182.519 30.817,182.181 30.471,181.892 30.333 C 181.603 30.196,181.232 29.833,181.066 29.527 C 180.900 29.221,180.504 28.846,180.186 28.694 C 179.867 28.541,179.484 28.192,179.335 27.917 C 179.184 27.637,178.771 27.282,178.400 27.112 C 178.034 26.944,177.588 26.588,177.409 26.320 C 177.230 26.053,176.986 25.834,176.868 25.834 C 176.749 25.834,176.299 25.505,175.868 25.103 C 175.127 24.414,173.958 23.674,173.586 23.660 C 173.493 23.657,173.267 23.416,173.083 23.125 C 172.883 22.807,172.485 22.498,172.083 22.349 C 171.717 22.213,171.349 21.989,171.265 21.851 C 170.936 21.309,170.290 20.862,169.576 20.682 C 168.850 20.500,168.430 20.195,168.083 19.602 C 167.983 19.430,167.470 19.215,166.793 19.062 C 165.864 18.851,165.620 18.723,165.383 18.321 C 165.223 18.050,164.852 17.755,164.542 17.653 C 163.457 17.295,163.417 17.099,163.417 12.258 C 163.417 6.738,163.556 6.215,164.681 7.523 M231.862 8.609 C 232.141 8.862,232.167 9.220,232.167 12.846 L 232.167 16.808 231.250 17.591 C 230.746 18.021,230.333 18.479,230.333 18.607 C 230.333 18.899,229.813 19.116,228.796 19.250 C 228.167 19.332,227.913 19.468,227.538 19.923 C 227.279 20.237,226.771 20.595,226.409 20.719 C 226.000 20.859,225.624 21.144,225.417 21.471 C 225.167 21.866,224.854 22.066,224.167 22.273 C 223.523 22.466,223.077 22.738,222.664 23.190 C 222.341 23.544,221.964 23.833,221.828 23.833 C 221.505 23.833,220.667 24.612,220.667 24.912 C 220.667 25.040,220.498 25.195,220.292 25.258 C 219.748 25.423,218.833 26.146,218.833 26.410 C 218.833 26.535,218.508 26.794,218.111 26.987 C 217.713 27.179,217.284 27.532,217.156 27.770 C 217.029 28.008,216.585 28.430,216.171 28.708 C 215.756 28.987,214.863 29.770,214.187 30.450 C 213.493 31.148,212.670 31.801,212.299 31.950 C 211.882 32.117,211.496 32.443,211.243 32.845 C 211.023 33.192,210.641 33.576,210.393 33.697 C 210.145 33.818,209.782 34.206,209.585 34.559 C 209.388 34.912,209.038 35.317,208.806 35.457 C 208.574 35.598,208.257 35.946,208.102 36.232 C 207.764 36.855,206.307 38.405,205.457 39.046 C 205.062 39.344,204.783 39.730,204.672 40.130 C 204.287 41.519,203.667 41.554,203.667 40.186 C 203.667 39.112,203.786 38.833,204.247 38.833 C 204.820 38.833,205.007 38.477,205.116 37.182 C 205.208 36.084,205.254 35.973,205.788 35.565 C 206.104 35.325,206.501 34.802,206.672 34.404 C 206.843 34.006,207.142 33.584,207.336 33.465 C 207.731 33.226,208.056 32.560,208.228 31.641 C 208.310 31.207,208.520 30.900,208.963 30.567 C 209.705 30.009,209.827 29.850,209.831 29.431 C 209.835 28.882,210.353 27.904,210.726 27.740 C 210.923 27.654,211.266 27.188,211.489 26.704 C 211.752 26.134,212.023 25.792,212.257 25.733 C 212.471 25.680,212.770 25.342,212.986 24.909 C 213.187 24.506,213.527 24.039,213.740 23.871 C 214.103 23.585,214.833 22.232,214.833 21.845 C 214.833 21.749,215.131 21.483,215.495 21.253 C 215.859 21.023,216.267 20.628,216.400 20.376 C 216.534 20.123,216.911 19.707,217.238 19.451 C 217.566 19.195,217.833 18.851,217.833 18.685 C 217.833 18.341,218.258 17.921,218.762 17.768 C 218.952 17.710,219.275 17.364,219.481 16.998 C 219.687 16.633,219.959 16.333,220.087 16.333 C 220.371 16.333,221.167 15.503,221.167 15.206 C 221.167 15.089,221.372 14.901,221.623 14.788 C 222.186 14.535,222.602 14.134,222.735 13.715 C 222.790 13.540,223.140 13.262,223.512 13.098 C 223.883 12.934,224.250 12.636,224.326 12.435 C 224.504 11.968,224.745 11.786,225.652 11.434 C 226.056 11.277,226.717 10.857,227.121 10.501 C 227.525 10.146,228.075 9.807,228.343 9.748 C 228.610 9.689,228.963 9.470,229.127 9.262 C 229.802 8.405,231.253 8.058,231.862 8.609 M145.821 13.195 C 146.286 13.303,146.667 13.444,146.667 13.509 C 146.667 14.055,148.410 14.456,151.617 14.647 C 153.518 14.760,153.678 14.797,154.053 15.201 C 154.697 15.897,155.408 16.170,156.775 16.247 C 158.003 16.317,158.075 16.344,158.678 16.972 C 159.162 17.476,159.480 17.651,160.070 17.739 C 161.019 17.882,161.563 18.157,162.004 18.717 C 162.280 19.068,162.542 19.174,163.372 19.268 C 164.390 19.383,164.868 19.663,165.268 20.378 C 165.362 20.545,165.786 20.729,166.301 20.827 C 167.329 21.022,167.833 21.263,167.833 21.558 C 167.833 21.888,168.695 22.611,169.242 22.740 C 169.512 22.804,169.893 23.029,170.089 23.241 C 170.470 23.652,171.291 24.070,172.048 24.239 C 172.342 24.305,172.573 24.503,172.679 24.782 C 172.867 25.277,173.442 25.833,173.765 25.833 C 173.882 25.833,174.189 26.136,174.448 26.506 C 174.736 26.919,175.094 27.216,175.377 27.277 C 175.630 27.331,176.133 27.663,176.494 28.013 C 176.855 28.364,177.495 28.808,177.916 29.000 C 178.338 29.192,178.745 29.513,178.824 29.716 C 179.017 30.210,179.625 30.833,179.912 30.833 C 180.041 30.833,180.308 31.123,180.508 31.478 C 180.707 31.832,181.101 32.226,181.384 32.353 C 181.667 32.480,182.015 32.798,182.158 33.060 C 182.301 33.322,182.679 33.659,182.999 33.810 C 183.318 33.961,183.681 34.297,183.806 34.558 C 183.931 34.818,184.291 35.183,184.607 35.369 C 184.923 35.556,185.329 35.997,185.509 36.351 C 185.689 36.704,186.061 37.109,186.335 37.251 C 186.609 37.393,186.833 37.601,186.833 37.714 C 186.833 38.004,187.633 38.833,187.913 38.833 C 188.041 38.833,188.315 39.136,188.523 39.505 C 188.731 39.875,189.067 40.219,189.271 40.270 C 189.863 40.419,190.751 42.500,190.223 42.500 C 190.207 42.500,190.080 42.544,189.942 42.597 C 189.775 42.661,189.603 42.526,189.434 42.200 C 189.247 41.839,188.972 41.646,188.406 41.479 C 187.836 41.311,187.564 41.119,187.374 40.750 C 187.032 40.088,186.689 39.846,186.083 39.836 C 185.269 39.824,184.851 39.653,184.734 39.283 C 184.576 38.786,184.009 38.362,183.333 38.235 C 182.976 38.167,182.513 37.883,182.139 37.500 C 181.627 36.977,181.376 36.856,180.593 36.758 C 179.828 36.663,179.606 36.560,179.375 36.196 C 178.856 35.378,178.498 35.167,177.630 35.167 C 176.742 35.167,176.167 34.947,176.167 34.607 C 176.167 34.102,175.413 33.692,174.169 33.521 C 173.483 33.427,172.894 33.266,172.860 33.164 C 172.636 32.490,172.063 32.211,170.500 32.012 C 168.469 31.754,168.384 31.726,168.273 31.284 C 168.090 30.553,167.380 30.333,165.203 30.333 L 163.208 30.333 163.110 29.841 C 162.940 28.991,162.368 28.833,159.457 28.833 C 156.792 28.833,156.420 28.747,156.306 28.102 C 156.183 27.407,155.140 27.326,146.475 27.335 L 138.366 27.344 138.016 26.900 C 137.677 26.468,137.667 26.291,137.667 20.817 C 137.667 14.351,137.569 14.746,139.285 14.247 C 139.779 14.103,140.228 13.868,140.283 13.725 C 140.545 13.041,143.803 12.730,145.821 13.195 M254.710 13.159 C 255.350 13.264,255.824 13.457,256.127 13.737 C 256.378 13.968,256.865 14.392,257.208 14.679 L 257.833 15.201 257.833 20.822 L 257.833 26.442 257.403 26.846 L 256.973 27.250 249.721 27.280 C 241.729 27.314,241.833 27.300,241.833 28.345 L 241.833 28.804 248.792 28.787 C 261.465 28.754,264.251 28.934,265.295 29.850 C 265.885 30.369,265.908 30.375,267.417 30.420 C 269.066 30.469,271.231 30.701,271.542 30.861 C 271.969 31.082,271.998 74.645,271.571 75.071 C 271.056 75.587,269.333 75.264,269.333 74.652 C 269.333 74.032,268.405 73.785,265.780 73.705 C 261.212 73.566,259.931 73.912,261.297 74.917 C 261.721 75.228,261.995 75.249,265.542 75.230 L 269.333 75.210 269.333 75.697 C 269.333 76.818,271.518 76.974,287.250 76.974 C 301.356 76.974,305.167 76.775,305.167 76.039 C 305.167 75.561,306.383 75.333,308.933 75.333 C 311.591 75.333,312.988 75.038,313.223 74.427 C 313.343 74.115,314.553 73.862,316.394 73.764 C 317.873 73.686,318.097 73.630,318.621 73.213 C 318.942 72.959,319.327 72.660,319.477 72.551 C 319.627 72.441,320.493 72.312,321.401 72.263 C 323.042 72.175,323.056 72.171,323.606 71.571 C 324.381 70.724,325.800 70.448,326.206 71.064 C 326.414 71.380,326.356 71.468,325.594 71.992 C 325.188 72.272,324.814 72.632,324.763 72.793 C 324.712 72.954,324.375 73.268,324.014 73.491 C 323.653 73.714,323.279 74.070,323.182 74.282 C 323.086 74.494,322.667 74.833,322.252 75.034 C 321.800 75.254,321.418 75.583,321.297 75.855 C 321.146 76.197,320.874 76.380,320.202 76.591 C 319.625 76.773,319.091 77.095,318.696 77.502 C 318.240 77.970,317.891 78.162,317.333 78.252 C 316.392 78.404,315.789 78.708,315.365 79.247 C 315.179 79.484,314.790 79.711,314.475 79.765 C 313.506 79.934,312.595 80.345,312.250 80.769 C 311.989 81.090,311.585 81.246,310.384 81.491 C 309.145 81.744,308.761 81.896,308.379 82.286 C 307.975 82.700,307.695 82.799,306.412 82.980 C 304.458 83.257,303.875 83.448,303.571 83.912 C 303.238 84.420,302.338 84.628,299.967 84.746 C 297.910 84.849,297.144 85.061,296.423 85.729 C 295.881 86.232,295.500 86.289,292.430 86.322 C 291.062 86.337,289.892 86.380,289.829 86.419 C 289.767 86.458,289.170 86.574,288.503 86.678 C 287.524 86.829,287.199 86.959,286.818 87.349 C 286.293 87.886,286.928 87.822,280.750 87.962 C 279.650 87.987,271.100 88.040,261.750 88.081 C 239.812 88.174,241.667 87.882,241.667 91.245 C 241.667 92.305,241.490 92.639,240.801 92.882 C 240.334 93.048,239.984 93.754,239.883 94.738 C 239.799 95.551,239.721 95.709,239.268 95.991 C 238.614 96.399,238.406 96.742,238.249 97.673 C 238.151 98.253,237.963 98.566,237.395 99.095 C 236.994 99.468,236.667 99.925,236.667 100.109 C 236.667 100.294,236.367 100.715,236.000 101.044 C 235.633 101.373,235.333 101.728,235.333 101.832 C 235.333 102.245,234.612 103.667,234.403 103.667 C 234.050 103.667,233.509 104.346,233.329 105.016 C 233.238 105.354,232.982 105.750,232.759 105.895 C 232.537 106.041,232.161 106.593,231.923 107.122 C 231.644 107.742,231.318 108.183,231.002 108.363 C 230.734 108.517,230.379 108.929,230.215 109.278 C 230.050 109.627,229.704 110.014,229.446 110.138 C 229.153 110.278,228.858 110.636,228.665 111.088 C 228.494 111.486,228.153 111.944,227.908 112.105 C 227.662 112.266,227.324 112.716,227.157 113.105 C 226.991 113.494,226.631 114.011,226.358 114.254 C 226.085 114.498,225.710 115.049,225.525 115.479 C 225.275 116.059,225.031 116.336,224.578 116.552 C 224.221 116.723,223.896 117.032,223.795 117.297 C 223.700 117.546,223.340 117.950,222.994 118.195 C 222.620 118.460,222.322 118.832,222.258 119.112 C 222.189 119.418,221.918 119.728,221.486 119.996 C 221.120 120.223,220.779 120.576,220.727 120.781 C 220.676 120.986,220.304 121.424,219.900 121.755 C 219.497 122.085,219.167 122.459,219.167 122.586 C 219.167 122.713,218.900 123.020,218.574 123.269 C 218.247 123.518,217.880 123.915,217.757 124.152 C 217.634 124.389,217.265 124.859,216.938 125.195 C 216.610 125.532,216.171 126.167,215.963 126.607 C 215.754 127.047,215.422 127.487,215.226 127.585 C 214.678 127.858,214.351 128.169,214.124 128.631 C 214.010 128.863,213.768 129.135,213.586 129.235 C 213.094 129.505,212.667 130.014,212.667 130.328 C 212.667 130.481,212.370 130.772,212.007 130.976 C 211.644 131.180,211.188 131.630,210.994 131.975 C 210.800 132.321,210.433 132.682,210.178 132.778 C 209.913 132.878,209.616 133.179,209.483 133.483 C 209.355 133.775,209.003 134.160,208.701 134.339 C 208.399 134.518,208.054 134.896,207.935 135.178 C 207.817 135.461,207.523 135.821,207.283 135.978 C 207.043 136.136,206.619 136.580,206.339 136.965 C 206.060 137.351,205.730 137.667,205.606 137.667 C 205.482 137.667,205.238 137.860,205.065 138.097 C 204.517 138.845,204.262 139.086,203.806 139.285 C 203.562 139.392,203.309 139.648,203.244 139.853 C 203.025 140.544,202.391 141.089,202.094 140.842 C 201.615 140.444,201.776 139.606,202.500 138.730 C 202.866 138.287,203.213 137.660,203.271 137.337 C 203.385 136.696,203.761 136.167,204.101 136.167 C 204.395 136.167,205.167 135.127,205.167 134.730 C 205.167 134.553,205.383 134.218,205.647 133.986 C 205.938 133.731,206.249 133.184,206.438 132.597 C 206.666 131.889,206.862 131.580,207.167 131.447 C 207.717 131.207,208.097 130.815,208.252 130.327 C 208.321 130.108,208.658 129.652,209.001 129.313 C 209.343 128.974,209.673 128.484,209.734 128.224 C 209.929 127.393,210.201 126.833,210.411 126.833 C 210.724 126.833,211.109 126.328,211.427 125.500 C 211.586 125.087,211.922 124.525,212.175 124.250 C 212.427 123.975,212.762 123.334,212.920 122.825 C 213.130 122.146,213.334 121.827,213.685 121.625 C 214.207 121.326,214.592 120.602,214.748 119.625 C 214.821 119.169,214.971 118.937,215.305 118.765 C 215.866 118.474,216.120 118.000,216.292 116.920 C 216.394 116.275,216.515 116.044,216.836 115.884 C 217.372 115.617,217.833 114.744,217.833 113.998 C 217.833 113.400,218.212 112.667,218.521 112.667 C 218.832 112.667,219.182 112.180,219.451 111.378 C 219.597 110.941,219.934 110.396,220.200 110.167 C 220.577 109.842,220.736 109.493,220.924 108.583 C 221.069 107.882,221.282 107.332,221.458 107.205 C 222.181 106.682,222.333 106.471,222.333 105.993 C 222.333 105.069,222.844 103.167,223.092 103.167 C 223.516 103.167,224.079 102.170,224.250 101.119 C 224.387 100.279,224.492 100.056,224.833 99.886 C 225.463 99.572,225.833 98.733,225.833 97.620 C 225.833 96.725,225.870 96.630,226.319 96.372 C 227.012 95.975,227.333 95.332,227.333 94.343 C 227.333 93.514,227.686 92.667,228.031 92.667 C 228.423 92.667,228.692 92.087,228.823 90.963 C 228.999 89.456,229.187 88.968,229.726 88.614 C 230.401 88.172,230.719 87.323,230.583 86.329 C 230.464 85.463,230.743 84.833,231.247 84.833 C 231.853 84.833,232.131 84.105,232.198 82.347 C 232.254 80.878,232.311 80.583,232.572 80.430 C 233.522 79.873,233.666 79.594,233.794 78.067 C 233.903 76.754,233.959 76.571,234.303 76.400 C 234.928 76.089,235.191 75.555,235.347 74.281 C 235.545 72.657,235.636 72.333,235.891 72.333 C 236.342 72.333,236.798 71.586,236.908 70.667 C 237.092 69.126,237.178 68.852,237.508 68.748 C 237.683 68.692,238.134 68.389,238.510 68.075 C 239.181 67.514,239.833 67.486,239.833 68.018 C 239.833 68.629,240.962 68.981,242.958 68.993 C 244.038 68.999,244.167 69.034,244.167 69.321 C 244.167 70.088,245.710 70.667,247.754 70.667 C 248.760 70.667,248.840 70.695,249.068 71.136 C 249.429 71.834,250.329 72.140,252.228 72.208 C 253.632 72.258,253.905 72.315,254.094 72.592 C 254.867 73.728,254.644 73.663,257.792 73.665 L 260.667 73.667 260.667 73.192 C 260.667 72.300,260.273 72.148,257.722 72.060 C 254.827 71.959,254.752 71.943,254.504 71.344 C 254.149 70.485,253.743 70.348,251.396 70.297 C 249.276 70.250,249.264 70.248,249.167 69.833 C 248.989 69.075,247.820 68.636,246.310 68.760 C 244.904 68.876,244.389 68.718,244.303 68.144 C 244.211 67.524,243.264 67.167,241.714 67.167 C 240.402 67.167,240.335 67.149,240.239 66.766 C 239.814 65.071,237.319 65.298,236.820 67.078 C 236.655 67.664,236.135 68.333,235.844 68.333 C 235.502 68.333,235.167 69.392,235.167 70.473 L 235.167 71.645 234.508 72.016 C 233.680 72.481,233.646 72.570,233.542 74.525 C 233.458 76.119,233.453 76.134,233.000 76.225 C 232.244 76.376,231.775 77.361,231.906 78.520 C 232.012 79.456,231.794 80.000,231.313 80.000 C 230.731 80.000,230.333 80.891,230.317 82.233 C 230.296 83.902,230.175 84.361,229.690 84.603 C 229.072 84.911,228.845 85.395,228.728 86.662 C 228.631 87.707,228.562 87.894,228.183 88.135 C 227.506 88.568,227.380 88.822,227.263 89.992 C 227.136 91.252,226.849 92.167,226.579 92.167 C 225.981 92.167,225.583 93.018,225.583 94.299 L 225.583 95.570 224.881 96.042 C 224.136 96.543,223.839 97.192,223.832 98.333 C 223.828 98.993,223.708 99.228,223.301 99.378 C 222.850 99.544,222.501 100.218,222.334 101.246 C 222.171 102.246,221.945 102.667,221.569 102.667 C 221.202 102.667,220.965 103.313,220.810 104.738 C 220.671 106.022,220.634 106.110,220.004 106.667 C 219.440 107.165,219.306 107.420,219.084 108.417 C 218.865 109.405,218.749 109.627,218.331 109.866 C 217.845 110.145,217.441 110.831,217.264 111.680 C 217.215 111.917,216.993 112.192,216.769 112.294 C 216.386 112.469,215.833 113.804,215.833 114.554 C 215.833 114.980,215.642 115.333,215.411 115.333 C 215.065 115.333,214.518 116.140,214.411 116.809 C 214.213 118.051,214.162 118.161,213.745 118.266 C 213.053 118.440,212.667 119.095,212.667 120.095 C 212.667 120.951,212.646 120.990,212.007 121.349 C 211.563 121.599,211.315 121.872,211.246 122.186 C 211.189 122.443,210.811 122.990,210.405 123.402 C 209.965 123.848,209.666 124.306,209.666 124.534 C 209.664 125.392,209.327 126.162,208.907 126.267 C 208.430 126.387,207.833 127.076,207.833 127.507 C 207.833 127.669,207.560 128.128,207.225 128.526 C 206.891 128.924,206.497 129.517,206.350 129.842 C 206.203 130.168,205.764 130.738,205.375 131.108 C 204.978 131.486,204.667 131.936,204.667 132.134 C 204.667 132.336,204.420 132.682,204.088 132.947 C 203.678 133.274,203.401 133.717,203.136 134.469 C 202.868 135.226,202.638 135.593,202.328 135.753 C 202.087 135.877,201.755 136.297,201.580 136.697 C 201.407 137.093,201.036 137.614,200.755 137.855 C 200.361 138.194,200.193 138.536,200.018 139.355 C 199.716 140.768,199.250 141.096,198.540 140.395 C 198.244 140.102,198.326 98.414,198.625 97.417 C 198.777 96.913,198.826 91.274,198.829 74.290 L 198.833 51.830 199.542 51.059 C 199.931 50.635,200.392 50.167,200.565 50.019 C 200.738 49.871,201.222 49.394,201.641 48.958 C 202.060 48.523,202.461 48.167,202.533 48.167 C 202.720 48.167,203.333 47.619,203.333 47.451 C 203.333 47.205,203.777 46.854,204.233 46.739 C 204.676 46.628,205.333 45.948,205.333 45.600 C 205.333 45.497,205.701 45.237,206.151 45.024 C 206.600 44.810,207.182 44.429,207.442 44.175 C 207.703 43.922,208.201 43.613,208.548 43.488 C 209.200 43.254,209.587 42.919,209.902 42.317 C 210.007 42.116,210.446 41.848,210.943 41.682 C 211.416 41.524,212.074 41.156,212.407 40.864 C 212.740 40.572,213.166 40.333,213.355 40.333 C 213.862 40.333,214.556 39.871,214.869 39.325 C 215.021 39.061,215.336 38.805,215.572 38.756 C 215.807 38.707,216.197 38.625,216.438 38.575 C 216.878 38.483,217.717 37.765,217.849 37.368 C 217.889 37.250,218.437 37.074,219.085 36.970 C 220.415 36.757,220.572 36.666,220.939 35.894 C 221.202 35.339,221.215 35.333,222.339 35.333 C 223.769 35.333,223.920 35.271,224.350 34.506 L 224.702 33.879 226.421 33.792 C 228.275 33.697,228.557 33.568,228.962 32.625 L 229.160 32.167 230.955 32.166 C 232.893 32.165,233.833 31.850,233.833 31.202 C 233.833 30.576,234.149 30.500,236.825 30.488 C 240.629 30.470,241.667 30.247,241.667 29.446 C 241.667 29.022,241.159 28.941,238.058 28.870 C 234.620 28.793,233.900 28.951,233.801 29.806 L 233.750 30.250 231.658 30.333 C 229.610 30.415,228.667 30.675,228.667 31.159 C 228.667 31.612,228.102 31.833,226.946 31.834 C 224.987 31.836,224.597 32.014,223.744 33.296 C 223.727 33.322,223.143 33.442,222.445 33.563 C 221.159 33.787,220.667 34.027,220.667 34.431 C 220.667 34.732,220.237 34.938,219.333 35.073 C 217.792 35.302,217.729 35.332,217.349 36.007 C 216.992 36.644,216.948 36.667,216.110 36.667 C 215.135 36.667,214.626 36.939,214.253 37.662 C 214.062 38.030,213.847 38.163,213.295 38.254 C 212.395 38.404,211.721 38.746,211.456 39.188 C 211.343 39.378,210.871 39.708,210.409 39.923 C 209.934 40.142,209.467 40.501,209.336 40.745 C 209.159 41.077,208.820 41.264,207.887 41.547 C 207.008 41.814,206.669 41.994,206.668 42.196 C 206.666 42.652,205.859 43.192,205.482 42.990 C 204.797 42.624,205.163 41.833,206.018 41.833 C 206.663 41.833,206.667 41.830,206.667 41.168 C 206.667 40.592,206.744 40.453,207.247 40.127 C 207.566 39.919,207.928 39.546,208.050 39.296 C 208.172 39.046,208.576 38.621,208.948 38.352 C 209.346 38.063,209.671 37.669,209.740 37.390 C 209.868 36.872,212.559 34.133,213.529 33.534 C 213.848 33.336,214.193 32.992,214.295 32.769 C 214.396 32.545,214.653 32.310,214.865 32.246 C 215.333 32.104,216.167 31.349,216.167 31.066 C 216.167 30.953,216.428 30.699,216.747 30.502 C 217.066 30.305,217.484 29.923,217.675 29.655 C 217.866 29.386,218.149 29.165,218.303 29.163 C 218.691 29.158,219.231 28.674,219.468 28.116 C 219.587 27.837,219.906 27.550,220.262 27.401 C 220.589 27.264,220.983 26.931,221.137 26.660 C 221.291 26.389,221.736 26.017,222.126 25.832 C 222.516 25.648,223.116 25.245,223.459 24.936 C 223.803 24.628,224.326 24.322,224.623 24.258 C 225.159 24.142,225.833 23.483,225.833 23.076 C 225.833 22.960,226.263 22.729,226.788 22.564 C 227.313 22.399,228.016 22.017,228.350 21.715 C 228.684 21.414,229.045 21.167,229.152 21.167 C 229.629 21.167,230.667 20.472,230.764 20.087 C 230.879 19.627,230.989 19.580,232.480 19.345 C 233.065 19.253,233.558 19.157,233.576 19.131 C 234.328 18.014,234.323 18.018,235.381 17.901 C 236.325 17.797,236.476 17.723,237.083 17.070 C 237.737 16.367,237.776 16.351,239.083 16.250 C 240.970 16.104,241.147 16.049,241.755 15.423 C 242.357 14.803,243.955 14.459,246.417 14.419 C 248.772 14.381,248.774 14.380,249.480 13.667 L 250.141 13.000 251.945 13.001 C 252.938 13.001,254.182 13.073,254.710 13.159 M164.243 18.322 C 164.391 18.561,164.039 18.702,163.624 18.569 C 163.262 18.454,163.260 18.447,163.583 18.320 C 164.040 18.142,164.132 18.142,164.243 18.322 M167.402 19.977 C 167.538 20.197,167.349 20.306,166.992 20.213 C 166.815 20.167,166.711 20.062,166.762 19.981 C 166.878 19.792,167.287 19.790,167.402 19.977 M229.833 20.000 C 229.833 20.092,229.627 20.166,229.375 20.164 C 229.018 20.162,228.972 20.126,229.167 20.000 C 229.493 19.789,229.833 19.789,229.833 20.000 M169.333 21.684 C 169.333 21.766,169.183 21.833,169.000 21.833 C 168.675 21.833,168.566 21.657,168.766 21.456 C 168.900 21.322,169.333 21.497,169.333 21.684 M172.247 23.338 C 172.197 23.419,172.040 23.441,171.897 23.386 C 171.695 23.309,171.686 23.258,171.853 23.154 C 172.106 22.998,172.379 23.125,172.247 23.338 M225.167 23.268 C 225.167 23.304,224.923 23.328,224.625 23.322 C 224.184 23.312,224.145 23.285,224.417 23.178 C 224.722 23.057,225.167 23.110,225.167 23.268 M220.260 26.645 C 219.902 27.003,219.506 26.644,219.829 26.255 C 219.997 26.053,220.096 26.039,220.280 26.192 C 220.484 26.360,220.481 26.424,220.260 26.645 M218.755 27.841 C 218.957 28.168,218.508 28.508,218.161 28.291 C 217.931 28.147,217.897 28.041,218.029 27.882 C 218.244 27.622,218.607 27.602,218.755 27.841 M178.667 27.972 C 178.667 28.207,178.479 28.315,178.235 28.221 C 178.107 28.172,178.043 28.065,178.094 27.983 C 178.210 27.794,178.667 27.786,178.667 27.972 M155.865 28.917 C 156.020 28.978,156.170 29.183,156.199 29.372 C 156.324 30.215,156.976 30.410,159.969 30.500 L 162.748 30.583 163.013 31.146 C 163.415 31.999,163.848 32.154,165.843 32.161 L 167.602 32.167 168.114 32.892 L 168.625 33.617 170.032 33.705 C 171.445 33.793,172.101 34.029,172.252 34.505 C 172.382 34.916,173.178 35.280,174.194 35.394 C 175.436 35.533,175.618 35.615,175.737 36.092 C 175.868 36.613,176.513 36.936,177.722 37.087 C 178.389 37.170,178.724 37.293,178.791 37.479 C 178.982 38.005,179.879 38.667,180.405 38.669 C 181.223 38.673,181.648 38.844,181.766 39.217 C 181.924 39.714,182.491 40.138,183.167 40.265 C 183.523 40.332,183.986 40.617,184.358 40.997 C 184.757 41.405,185.230 41.685,185.733 41.812 C 186.315 41.958,186.590 42.144,186.875 42.581 C 187.110 42.943,187.545 43.286,188.042 43.500 C 188.477 43.689,188.833 43.919,188.833 44.012 C 188.833 44.293,189.383 44.762,190.000 45.007 C 190.321 45.134,190.808 45.472,191.083 45.759 C 191.358 46.045,191.904 46.419,192.295 46.590 C 192.732 46.781,193.134 47.116,193.336 47.459 C 193.517 47.766,193.879 48.091,194.139 48.182 C 194.420 48.280,194.763 48.614,194.981 49.002 C 195.183 49.361,195.550 49.752,195.797 49.871 C 196.489 50.202,196.480 49.901,196.490 74.090 C 196.499 93.685,196.534 96.894,196.750 97.723 C 196.965 98.550,197.000 101.438,197.000 118.643 L 197.000 138.604 196.652 138.978 C 196.134 139.533,195.820 139.362,195.472 138.339 C 195.302 137.838,195.035 137.356,194.878 137.269 C 194.238 136.910,193.833 136.340,193.833 135.795 C 193.833 135.132,193.483 134.586,192.845 134.256 C 192.537 134.097,192.342 133.835,192.272 133.484 C 192.160 132.927,191.477 132.167,191.087 132.167 C 190.944 132.167,190.786 131.834,190.671 131.292 C 190.464 130.318,190.295 130.048,189.625 129.619 C 189.373 129.458,189.167 129.208,189.167 129.064 C 189.167 128.618,188.606 127.824,188.222 127.728 C 187.841 127.632,187.333 126.629,187.333 125.971 C 187.333 125.770,187.045 125.350,186.673 125.005 C 186.309 124.670,185.915 124.101,185.797 123.741 C 185.654 123.303,185.383 122.956,184.977 122.694 C 184.453 122.355,184.357 122.191,184.261 121.466 C 184.133 120.497,183.827 119.960,183.257 119.700 C 182.967 119.568,182.822 119.335,182.750 118.883 C 182.591 117.893,182.208 117.175,181.676 116.870 C 181.203 116.598,181.075 116.308,180.751 114.772 C 180.644 114.262,180.407 113.957,179.997 113.803 C 179.679 113.682,179.386 113.093,179.260 112.319 C 179.204 111.979,178.903 111.419,178.561 111.020 C 178.230 110.633,177.892 110.010,177.806 109.630 C 177.670 109.022,177.408 108.680,176.562 108.008 C 176.459 107.926,176.320 107.423,176.254 106.890 C 176.109 105.733,175.677 104.821,175.093 104.438 C 174.789 104.239,174.667 104.012,174.667 103.647 C 174.667 102.624,174.176 101.358,173.662 101.054 C 173.172 100.765,173.100 100.578,172.903 99.083 C 172.791 98.236,172.455 97.667,172.067 97.667 C 171.674 97.667,171.333 96.945,171.333 96.114 C 171.333 95.169,171.002 94.519,170.319 94.128 C 169.870 93.870,169.833 93.775,169.833 92.880 C 169.833 91.634,169.418 90.815,168.692 90.627 L 168.167 90.490 168.167 88.879 C 168.167 87.223,167.779 86.333,167.058 86.333 C 166.687 86.333,166.476 85.693,166.591 84.922 C 166.745 83.899,166.296 82.902,165.576 82.664 L 165.047 82.490 164.958 80.732 C 164.866 78.940,164.548 78.167,163.901 78.167 C 163.605 78.167,163.374 77.301,163.244 75.707 C 163.144 74.478,163.084 74.295,162.691 74.000 C 162.448 73.819,162.168 73.602,162.067 73.519 C 161.967 73.436,161.835 72.831,161.774 72.175 C 161.660 70.955,161.459 70.574,160.726 70.193 C 160.434 70.041,160.347 69.798,160.254 68.878 C 159.979 66.148,156.686 64.378,156.217 66.708 L 156.125 67.167 154.573 67.167 C 152.752 67.167,152.254 67.319,151.868 67.996 C 151.502 68.637,151.411 68.666,149.421 68.785 C 147.684 68.888,147.373 69.029,146.861 69.945 C 146.735 70.170,146.347 70.244,144.894 70.324 C 142.954 70.430,142.216 70.670,141.905 71.295 C 141.599 71.909,141.580 71.913,138.915 72.000 C 136.155 72.090,135.488 72.303,135.364 73.136 C 135.292 73.617,134.905 73.665,130.734 73.711 C 126.833 73.754,126.610 73.811,126.700 74.736 L 126.750 75.250 130.583 75.237 C 134.708 75.223,135.485 75.069,135.644 74.236 C 135.742 73.722,135.970 73.672,138.244 73.669 C 140.808 73.666,141.713 73.419,141.982 72.648 L 142.149 72.167 144.285 72.167 C 146.519 72.167,147.333 71.877,147.333 71.082 C 147.333 70.655,147.952 70.500,149.664 70.500 C 151.404 70.500,152.167 70.165,152.167 69.402 C 152.167 69.030,152.544 68.920,153.833 68.918 C 155.275 68.916,155.929 68.654,156.334 67.917 C 157.006 66.691,158.333 67.250,158.333 68.758 C 158.333 69.602,158.839 70.500,159.313 70.500 C 159.794 70.500,160.012 71.044,159.906 71.980 C 159.788 73.018,160.210 74.052,160.832 74.250 C 161.252 74.383,161.667 75.675,161.667 76.851 C 161.667 77.881,161.821 78.146,162.682 78.591 C 163.154 78.835,163.167 78.876,163.167 80.132 C 163.167 81.512,163.485 82.403,164.099 82.741 C 164.582 83.008,164.612 83.093,164.721 84.517 C 164.831 85.935,165.133 86.571,165.777 86.739 C 166.094 86.821,166.153 86.990,166.257 88.125 C 166.382 89.488,166.822 90.612,167.299 90.788 C 167.726 90.945,167.828 91.176,167.832 92.000 C 167.838 93.305,168.107 93.937,168.881 94.463 C 169.575 94.934,169.583 94.950,169.534 95.833 C 169.471 96.962,169.721 97.568,170.421 97.980 C 170.916 98.273,170.984 98.405,171.083 99.278 C 171.242 100.668,171.306 100.825,171.962 101.426 C 172.448 101.872,172.573 102.127,172.676 102.889 C 172.823 103.969,173.234 104.600,173.875 104.731 C 174.320 104.822,174.333 104.858,174.333 105.935 C 174.333 107.368,174.616 108.294,175.156 108.638 C 175.688 108.975,175.828 109.166,175.831 109.558 C 175.838 110.385,176.352 111.606,176.806 111.874 C 177.118 112.058,177.347 112.393,177.487 112.868 C 177.705 113.607,178.248 114.333,178.582 114.333 C 178.687 114.333,178.902 114.884,179.061 115.557 C 179.329 116.695,179.396 116.807,180.008 117.151 C 180.646 117.510,180.667 117.549,180.667 118.405 C 180.667 119.405,181.053 120.060,181.745 120.234 C 182.165 120.339,182.210 120.439,182.421 121.744 C 182.494 122.193,182.711 122.576,183.100 122.943 C 183.414 123.240,183.714 123.692,183.766 123.949 C 183.884 124.536,184.287 125.025,184.862 125.282 C 185.241 125.452,185.324 125.618,185.423 126.409 C 185.544 127.378,185.950 128.076,186.494 128.248 C 186.672 128.304,186.900 128.623,187.010 128.966 C 187.219 129.619,187.771 130.332,188.071 130.336 C 188.169 130.337,188.500 130.862,188.806 131.502 C 189.113 132.146,189.468 132.667,189.601 132.667 C 189.733 132.667,189.921 132.873,190.020 133.125 C 190.439 134.197,190.722 134.638,191.101 134.811 C 191.323 134.912,191.589 135.202,191.693 135.456 C 192.256 136.839,192.416 137.117,192.854 137.470 C 193.149 137.709,193.333 138.016,193.333 138.270 C 193.333 138.909,193.807 139.675,194.311 139.850 C 194.991 140.088,195.334 141.407,194.842 141.898 C 194.439 142.302,194.299 142.183,194.019 141.200 C 193.907 140.805,193.725 140.455,193.616 140.422 C 193.506 140.388,193.218 140.318,192.975 140.265 C 192.685 140.202,192.477 140.006,192.368 139.695 C 192.267 139.406,191.976 139.114,191.618 138.944 C 191.296 138.792,190.876 138.400,190.684 138.075 C 190.492 137.749,190.122 137.409,189.861 137.318 C 189.576 137.218,189.294 136.941,189.152 136.618 C 189.015 136.306,188.690 135.979,188.373 135.833 C 187.997 135.661,187.704 135.326,187.424 134.750 C 187.184 134.258,186.366 133.250,185.426 132.289 C 184.550 131.394,183.833 130.547,183.833 130.408 C 183.833 130.269,183.579 130.005,183.268 129.822 C 182.957 129.638,182.608 129.260,182.492 128.981 C 182.377 128.702,182.108 128.360,181.895 128.220 C 181.681 128.081,181.248 127.605,180.931 127.164 C 180.614 126.723,180.211 126.317,180.034 126.261 C 179.858 126.205,179.584 125.872,179.426 125.520 C 179.244 125.117,178.945 124.795,178.618 124.649 C 178.305 124.509,177.961 124.151,177.757 123.752 C 177.569 123.387,177.219 122.993,176.978 122.878 C 176.738 122.763,176.451 122.452,176.342 122.187 C 176.232 121.923,175.881 121.566,175.560 121.395 C 175.171 121.186,174.842 120.808,174.568 120.250 C 174.342 119.792,173.948 119.229,173.692 119.000 C 173.436 118.771,173.125 118.321,173.001 118.000 C 172.765 117.389,172.388 116.935,172.014 116.810 C 171.892 116.769,171.626 116.439,171.424 116.076 C 171.221 115.714,170.901 115.339,170.712 115.243 C 170.137 114.954,169.833 114.640,169.833 114.338 C 169.833 114.018,169.414 113.510,168.925 113.238 C 168.748 113.140,168.392 112.668,168.134 112.189 C 167.875 111.711,167.439 111.100,167.165 110.832 C 166.891 110.564,166.667 110.227,166.667 110.083 C 166.667 109.939,166.343 109.505,165.948 109.119 C 165.553 108.733,165.085 108.170,164.908 107.868 C 164.731 107.566,164.423 107.278,164.222 107.228 C 163.713 107.100,163.394 106.685,163.269 105.985 C 163.210 105.657,162.901 105.083,162.582 104.710 C 162.263 104.338,161.908 103.747,161.793 103.398 C 161.660 102.995,161.369 102.618,161.000 102.371 C 160.644 102.132,160.363 101.775,160.278 101.454 C 160.128 100.888,159.460 100.167,159.085 100.167 C 158.935 100.167,158.817 99.889,158.749 99.375 C 158.605 98.291,158.349 97.835,157.712 97.532 C 157.126 97.252,157.084 97.167,156.916 95.917 C 156.805 95.085,156.320 94.333,155.893 94.333 C 155.546 94.333,155.333 93.752,155.333 92.800 C 155.333 91.789,154.885 90.781,154.397 90.694 C 153.915 90.609,153.667 90.172,153.667 89.411 C 153.667 88.057,155.286 88.171,134.984 88.089 C 110.263 87.988,109.422 87.961,108.849 87.232 C 108.370 86.623,107.705 86.484,104.833 86.391 C 103.412 86.345,102.063 86.285,101.833 86.258 C 101.604 86.231,101.074 86.200,100.655 86.188 C 100.055 86.171,99.772 86.057,99.322 85.650 C 98.501 84.909,98.215 84.837,95.644 84.720 L 93.331 84.615 92.738 83.891 L 92.144 83.167 90.750 83.167 C 89.095 83.167,88.572 82.997,87.967 82.263 C 87.581 81.794,87.374 81.699,86.549 81.607 C 84.436 81.372,84.091 81.258,83.390 80.557 C 82.812 79.979,82.586 79.870,81.761 79.773 C 80.807 79.661,80.488 79.489,80.298 78.985 C 80.151 78.596,79.134 78.167,78.361 78.167 C 77.761 78.167,77.639 78.093,77.219 77.480 C 76.902 77.015,76.541 76.723,76.102 76.575 C 75.745 76.455,75.258 76.145,75.018 75.887 C 74.779 75.628,74.166 75.215,73.656 74.969 C 73.094 74.697,72.654 74.355,72.538 74.100 C 72.433 73.869,72.040 73.524,71.665 73.333 C 71.290 73.141,70.939 72.857,70.884 72.701 C 70.742 72.298,70.146 71.667,69.908 71.667 C 68.906 71.667,69.430 70.862,70.506 70.748 C 71.519 70.640,71.560 70.659,72.218 71.542 L 72.684 72.167 74.217 72.183 C 76.006 72.203,76.485 72.308,76.734 72.739 C 77.224 73.585,77.361 73.629,80.021 73.813 L 82.571 73.989 83.110 74.578 C 83.710 75.232,83.633 75.208,85.250 75.251 C 89.337 75.357,90.702 75.573,91.402 76.222 C 92.019 76.794,92.400 76.832,98.167 76.895 C 112.134 77.046,124.715 76.920,125.613 76.619 C 126.661 76.268,126.760 75.333,125.749 75.333 C 124.785 75.333,124.833 76.512,124.833 52.865 C 124.833 32.458,124.850 31.204,125.125 30.962 C 125.303 30.805,126.086 30.625,127.139 30.499 C 128.813 30.298,128.879 30.274,129.510 29.637 C 130.133 29.008,130.199 28.983,131.204 28.999 C 133.119 29.031,138.041 28.848,138.146 28.742 C 138.284 28.604,155.502 28.773,155.865 28.917 M180.307 29.760 C 180.222 30.200,179.878 30.237,179.746 29.822 C 179.673 29.590,179.712 29.408,179.856 29.319 C 180.142 29.143,180.382 29.377,180.307 29.760 M181.918 31.061 C 182.088 31.230,182.097 31.336,181.956 31.477 C 181.566 31.867,181.101 31.562,181.292 31.042 C 181.392 30.770,181.634 30.777,181.918 31.061 M183.667 32.970 C 183.667 33.251,183.199 33.323,182.992 33.073 C 182.687 32.706,183.099 32.242,183.433 32.576 C 183.562 32.704,183.667 32.882,183.667 32.970 M227.167 32.814 C 227.167 33.022,226.611 33.142,226.100 33.044 C 225.399 32.910,225.603 32.667,226.417 32.667 C 226.829 32.667,227.167 32.733,227.167 32.814 M185.161 34.243 C 185.387 34.515,185.261 34.833,184.927 34.833 C 184.561 34.833,184.310 34.423,184.537 34.196 C 184.794 33.940,184.917 33.949,185.161 34.243 M174.384 34.550 C 174.092 34.638,173.719 34.658,173.556 34.596 C 173.078 34.413,173.572 34.222,174.289 34.312 L 174.917 34.391 174.384 34.550 M223.360 34.540 C 223.256 34.644,222.949 34.657,222.554 34.573 L 221.917 34.437 222.583 34.336 C 223.338 34.222,223.608 34.292,223.360 34.540 M186.777 35.928 C 186.832 36.072,186.796 36.271,186.696 36.371 C 186.455 36.611,185.984 36.236,186.111 35.904 C 186.233 35.587,186.652 35.601,186.777 35.928 M177.917 36.000 C 178.184 36.115,178.126 36.146,177.625 36.155 C 177.281 36.161,176.946 36.172,176.879 36.179 C 176.813 36.186,176.731 36.111,176.699 36.012 C 176.628 35.801,177.434 35.793,177.917 36.000 M219.417 35.988 C 219.685 36.093,219.620 36.135,219.083 36.203 C 218.357 36.294,218.108 36.230,218.257 35.988 C 218.371 35.804,218.949 35.804,219.417 35.988 M188.307 37.760 C 188.222 38.200,187.878 38.237,187.746 37.822 C 187.673 37.590,187.712 37.408,187.856 37.319 C 188.142 37.143,188.382 37.377,188.307 37.760 M180.333 37.677 C 180.333 37.763,180.221 37.833,180.083 37.833 C 179.826 37.833,179.752 37.637,179.940 37.449 C 180.073 37.316,180.333 37.466,180.333 37.677 M216.000 37.686 C 216.000 37.767,215.813 37.833,215.583 37.833 C 215.343 37.833,215.167 37.737,215.167 37.606 C 215.167 37.454,215.304 37.406,215.583 37.459 C 215.813 37.503,216.000 37.605,216.000 37.686 M183.567 39.050 C 183.831 39.244,183.835 39.291,183.609 39.479 C 183.240 39.785,182.554 39.420,182.843 39.072 C 183.087 38.778,183.190 38.775,183.567 39.050 M189.918 39.061 C 190.088 39.230,190.097 39.336,189.956 39.477 C 189.566 39.867,189.101 39.562,189.292 39.042 C 189.392 38.770,189.634 38.777,189.918 39.061 M213.956 39.023 C 214.379 39.445,213.578 39.822,213.010 39.468 C 212.700 39.274,212.702 39.263,213.054 39.067 C 213.530 38.803,213.727 38.793,213.956 39.023 M193.029 40.109 C 193.393 40.439,193.421 40.982,193.097 41.426 C 192.866 41.742,192.853 41.741,192.514 41.349 C 191.773 40.495,192.232 39.389,193.029 40.109 M186.667 40.806 C 186.667 41.040,186.479 41.148,186.235 41.054 C 186.107 41.005,186.043 40.898,186.094 40.816 C 186.210 40.628,186.667 40.619,186.667 40.806 M188.667 42.529 C 188.667 42.701,188.029 42.871,187.835 42.751 C 187.599 42.605,187.625 42.209,187.875 42.124 C 188.099 42.048,188.667 42.338,188.667 42.529 M204.315 42.228 C 204.558 42.521,204.166 42.887,203.771 42.735 C 203.448 42.611,203.430 42.470,203.700 42.200 C 203.958 41.942,204.083 41.948,204.315 42.228 M209.073 42.517 C 208.952 42.713,208.380 42.710,208.258 42.513 C 208.151 42.340,208.638 42.190,208.957 42.298 C 209.071 42.337,209.123 42.435,209.073 42.517 M204.667 44.078 C 204.667 44.429,204.006 44.578,203.720 44.291 C 203.506 44.078,203.510 44.014,203.750 43.774 C 204.060 43.464,204.667 43.665,204.667 44.078 M205.917 43.940 C 206.124 44.019,206.142 44.079,205.987 44.174 C 205.731 44.333,205.302 44.186,205.427 43.983 C 205.537 43.805,205.560 43.803,205.917 43.940 M204.403 45.268 C 204.734 45.395,204.738 45.619,204.416 45.941 C 204.108 46.249,203.680 46.182,203.435 45.787 C 203.154 45.336,203.749 45.017,204.403 45.268 M159.346 68.701 L 159.264 69.417 159.167 68.750 C 159.062 68.025,159.143 67.526,159.320 67.812 C 159.379 67.907,159.390 68.307,159.346 68.701 M154.741 67.986 C 154.876 68.204,154.581 68.267,153.781 68.189 C 153.232 68.135,153.154 68.092,153.417 67.989 C 153.881 67.805,154.628 67.803,154.741 67.986 M242.741 67.986 C 242.876 68.204,242.581 68.267,241.781 68.189 C 241.232 68.135,241.154 68.092,241.417 67.989 C 241.881 67.805,242.628 67.803,242.741 67.986 M67.730 69.409 C 67.540 69.903,67.989 70.160,68.489 69.843 C 68.688 69.718,68.691 69.647,68.511 69.429 C 68.238 69.100,67.852 69.090,67.730 69.409 M236.188 70.289 L 236.109 70.917 235.950 70.384 C 235.862 70.092,235.842 69.719,235.904 69.556 C 236.087 69.078,236.278 69.572,236.188 70.289 M247.500 69.677 C 247.500 69.763,247.275 69.833,247.000 69.833 C 246.418 69.833,246.324 69.552,246.875 69.461 C 247.309 69.390,247.500 69.455,247.500 69.677 M161.000 72.417 C 161.000 72.554,161.006 72.721,161.012 72.787 C 161.019 72.854,160.944 72.935,160.846 72.968 C 160.747 73.001,160.667 72.834,160.667 72.597 C 160.667 72.360,160.742 72.167,160.833 72.167 C 160.925 72.167,161.000 72.279,161.000 72.417 M234.655 74.198 C 234.667 74.653,234.412 74.985,234.302 74.657 C 234.270 74.560,234.274 74.165,234.311 73.781 C 234.386 73.018,234.632 73.316,234.655 74.198 M233.012 77.712 C 233.006 77.779,233.000 77.946,233.000 78.083 C 233.000 78.221,232.925 78.333,232.833 78.333 C 232.742 78.333,232.667 78.140,232.667 77.903 C 232.667 77.666,232.747 77.499,232.846 77.532 C 232.944 77.565,233.019 77.646,233.012 77.712 M164.195 81.040 C 164.105 81.432,163.833 81.237,163.836 80.782 C 163.841 79.945,164.066 79.529,164.169 80.167 C 164.220 80.487,164.232 80.880,164.195 81.040 M165.833 84.333 C 165.833 84.608,165.767 84.833,165.686 84.833 C 165.520 84.833,165.334 84.055,165.468 83.921 C 165.684 83.705,165.833 83.874,165.833 84.333 M229.833 86.917 C 229.833 87.157,229.737 87.333,229.606 87.333 C 229.454 87.333,229.406 87.196,229.459 86.917 C 229.503 86.688,229.605 86.500,229.686 86.500 C 229.767 86.500,229.833 86.688,229.833 86.917 M167.353 89.074 C 167.222 89.634,167.056 88.909,167.152 88.195 L 167.234 87.583 167.331 88.167 C 167.385 88.487,167.395 88.896,167.353 89.074 M151.583 89.708 C 151.767 89.799,152.118 90.062,152.364 90.291 C 152.611 90.521,152.986 90.796,153.198 90.903 C 153.555 91.082,153.583 91.200,153.583 92.507 C 153.583 94.063,153.783 94.606,154.416 94.765 C 154.873 94.879,154.920 94.990,155.155 96.480 C 155.247 97.065,155.343 97.558,155.369 97.576 C 156.365 98.247,156.498 98.405,156.740 99.212 C 157.029 100.171,157.271 100.549,157.700 100.710 C 157.855 100.768,158.063 101.101,158.161 101.450 C 158.368 102.187,158.581 102.480,159.196 102.873 C 159.441 103.030,159.691 103.329,159.751 103.537 C 159.985 104.350,160.486 105.261,160.830 105.500 C 161.028 105.638,161.337 106.092,161.518 106.510 C 161.702 106.936,162.051 107.390,162.311 107.544 C 162.567 107.695,162.919 108.140,163.094 108.534 C 163.269 108.928,163.671 109.534,163.988 109.880 C 164.304 110.227,164.732 110.793,164.938 111.138 C 165.143 111.483,165.496 111.864,165.720 111.984 C 165.945 112.104,166.196 112.437,166.278 112.723 C 166.365 113.028,166.668 113.405,167.005 113.633 C 167.323 113.846,167.724 114.320,167.897 114.684 C 168.069 115.049,168.419 115.455,168.675 115.588 C 168.955 115.733,169.312 116.181,169.575 116.719 C 169.815 117.209,170.309 117.901,170.672 118.256 C 171.036 118.611,171.333 118.992,171.333 119.103 C 171.333 119.214,171.633 119.543,172.000 119.833 C 172.367 120.124,172.667 120.494,172.667 120.655 C 172.667 121.007,173.107 121.539,173.625 121.813 C 173.832 121.923,174.104 122.260,174.231 122.563 C 174.375 122.909,174.699 123.237,175.101 123.446 C 175.453 123.629,175.781 123.923,175.829 124.101 C 175.966 124.604,176.383 125.108,176.762 125.228 C 176.953 125.288,177.215 125.580,177.346 125.877 C 177.485 126.194,177.808 126.520,178.127 126.667 C 178.504 126.840,178.794 127.172,179.073 127.750 C 179.310 128.239,180.067 129.179,180.905 130.023 C 181.710 130.835,182.333 131.604,182.333 131.786 C 182.333 132.124,182.836 132.664,183.437 132.973 C 183.631 133.073,183.916 133.420,184.069 133.744 C 184.223 134.068,184.453 134.333,184.579 134.333 C 184.706 134.333,184.963 134.529,185.151 134.768 C 186.182 136.079,183.763 136.283,182.649 134.979 C 182.085 134.317,181.986 134.270,181.020 134.200 C 180.054 134.130,179.965 134.088,179.538 133.490 C 179.025 132.772,178.782 132.672,177.542 132.669 C 176.640 132.667,176.583 132.633,175.721 131.601 C 175.467 131.296,175.193 131.165,174.804 131.161 C 173.631 131.148,172.132 130.712,171.769 130.277 C 171.575 130.044,171.154 129.747,170.833 129.616 C 170.512 129.484,169.949 129.078,169.581 128.714 L 168.911 128.051 167.125 127.931 C 166.143 127.865,164.685 127.814,163.885 127.817 C 162.057 127.824,161.790 127.754,161.454 127.184 C 161.069 126.533,159.977 126.330,156.795 126.319 C 154.531 126.311,154.124 126.269,153.805 126.010 L 153.435 125.711 153.892 125.288 C 154.305 124.904,154.505 124.859,155.991 124.807 C 157.773 124.745,158.333 124.492,158.333 123.750 C 158.333 123.399,158.416 123.380,160.357 123.282 C 162.610 123.169,163.040 122.970,163.261 121.937 C 163.322 121.651,163.447 121.324,163.538 121.211 C 163.771 120.921,163.336 118.836,162.966 118.466 C 162.133 117.633,155.250 118.465,155.250 119.398 C 155.250 120.074,158.279 120.407,159.913 119.911 C 160.906 119.610,161.073 119.657,161.296 120.299 C 161.614 121.211,161.260 121.575,159.997 121.634 C 158.810 121.690,158.167 122.083,158.167 122.753 C 158.167 123.204,154.882 123.357,147.083 123.270 C 142.012 123.213,141.167 123.103,141.167 122.496 C 141.167 121.602,141.113 121.608,149.311 121.638 C 154.371 121.656,154.843 121.589,155.088 120.818 C 155.319 120.092,155.217 120.083,146.783 120.082 C 139.613 120.081,138.589 120.048,137.250 119.772 C 134.442 119.193,134.213 119.240,134.058 120.423 C 133.941 121.324,134.340 121.711,135.777 122.087 C 136.404 122.251,137.029 122.515,137.167 122.673 C 137.604 123.177,138.114 123.333,139.317 123.333 C 140.740 123.333,141.157 123.718,140.496 124.421 L 140.130 124.811 134.155 124.809 C 128.712 124.807,127.769 124.858,125.888 125.256 C 125.615 125.314,125.442 125.196,125.180 124.772 C 124.650 123.915,124.640 114.573,125.169 114.120 C 125.726 113.643,127.268 113.719,127.397 114.230 C 127.649 115.233,127.373 115.210,138.904 115.214 C 150.279 115.219,150.059 115.236,150.282 114.333 C 150.435 113.711,150.579 113.672,152.750 113.668 C 154.855 113.664,155.330 113.524,155.906 112.737 C 156.054 112.534,156.488 112.356,157.095 112.250 C 158.796 111.953,159.154 109.935,157.662 109.054 C 157.172 108.765,157.100 108.578,156.903 107.083 C 156.732 105.791,156.544 105.666,154.766 105.669 C 151.941 105.674,150.907 107.137,153.590 107.333 L 154.730 107.417 155.162 108.292 C 155.400 108.774,155.766 109.288,155.976 109.435 C 156.353 109.699,156.354 109.707,156.039 110.060 C 155.864 110.256,155.622 110.679,155.501 111.000 C 155.156 111.917,154.953 112.000,153.043 112.000 C 151.027 112.000,150.379 112.231,150.225 113.002 C 150.081 113.718,150.254 113.705,139.995 113.739 C 128.368 113.777,128.037 113.759,127.672 113.083 C 127.319 112.431,126.136 111.849,125.146 111.840 C 123.500 111.826,122.983 111.508,123.248 110.673 C 123.349 110.353,123.554 110.346,132.354 110.348 C 143.244 110.351,143.569 110.318,143.697 109.215 L 143.750 108.755 147.500 108.753 C 151.395 108.750,152.141 108.613,152.161 107.895 C 152.195 106.680,143.873 107.038,143.565 108.265 C 143.415 108.861,143.310 108.870,135.609 108.956 C 125.017 109.073,124.833 109.045,124.833 107.301 C 124.833 106.538,124.903 106.326,125.264 105.987 L 125.694 105.583 131.889 105.570 C 139.616 105.554,140.333 105.463,140.333 104.497 C 140.333 103.858,140.849 103.717,142.252 103.976 C 144.507 104.391,148.218 104.085,148.524 103.458 C 148.603 103.298,148.731 103.035,148.809 102.875 C 148.923 102.643,149.258 102.562,150.455 102.476 C 152.393 102.338,153.044 102.036,153.398 101.109 C 153.829 99.980,153.636 99.466,152.553 98.860 C 152.327 98.733,152.259 98.393,152.211 97.143 C 152.122 94.819,151.833 94.167,150.892 94.167 C 150.633 94.167,150.334 94.000,150.131 93.742 C 149.705 93.201,149.439 93.291,149.333 94.013 L 149.250 94.583 148.333 94.549 C 146.767 94.490,144.467 94.454,143.292 94.470 C 142.673 94.478,141.960 94.479,141.708 94.471 C 141.456 94.463,140.545 94.523,139.684 94.603 C 138.055 94.756,138.065 94.750,137.693 95.697 L 137.517 96.144 131.494 96.156 L 125.471 96.167 125.158 95.792 C 124.663 95.199,124.676 90.324,125.174 89.826 C 125.558 89.442,150.824 89.329,151.583 89.708 M271.569 89.864 C 271.991 90.466,271.956 95.504,271.528 95.892 C 270.774 96.574,258.333 96.187,258.333 95.482 C 258.333 94.907,255.647 94.224,254.447 94.493 C 253.946 94.605,253.401 94.608,252.833 94.500 C 252.276 94.394,251.722 94.394,251.250 94.500 C 250.776 94.606,250.223 94.606,249.656 94.498 C 249.179 94.407,248.399 94.333,247.924 94.333 C 247.223 94.333,246.935 94.239,246.405 93.838 C 245.452 93.117,245.061 93.510,244.844 95.404 C 244.766 96.089,244.670 96.269,244.268 96.491 C 243.388 96.977,243.167 97.667,243.167 99.927 C 243.167 102.521,243.340 102.764,245.065 102.579 C 246.600 102.415,247.203 102.557,247.463 103.143 C 247.812 103.931,248.741 104.241,250.289 104.084 C 251.001 104.012,251.958 103.978,252.417 104.008 C 252.875 104.038,253.813 104.067,254.500 104.073 L 255.750 104.083 255.800 103.569 C 255.885 102.698,254.470 102.190,252.827 102.501 C 252.279 102.605,251.727 102.605,251.279 102.502 C 250.896 102.414,249.963 102.340,249.204 102.337 C 247.922 102.334,247.815 102.307,247.680 101.951 C 247.480 101.427,247.222 101.244,246.220 100.917 C 244.920 100.494,244.854 100.363,244.958 98.444 C 245.029 97.139,245.102 96.786,245.315 96.715 C 245.463 96.665,245.974 96.445,246.452 96.227 C 247.207 95.882,247.419 95.851,248.065 95.996 C 248.554 96.106,249.103 96.107,249.667 96.000 C 250.224 95.894,250.778 95.894,251.250 96.000 C 251.722 96.106,252.276 96.106,252.833 96.000 C 253.404 95.892,253.947 95.895,254.455 96.008 C 254.989 96.128,255.483 96.125,256.101 95.996 C 257.165 95.775,257.634 95.961,257.773 96.657 C 257.949 97.538,257.781 97.526,269.689 97.555 C 281.838 97.586,280.753 97.667,282.039 96.637 C 282.467 96.294,282.721 96.266,286.206 96.168 C 290.045 96.060,291.030 95.884,291.269 95.261 C 291.500 94.659,295.047 94.401,295.804 94.932 C 296.273 95.260,296.064 95.590,295.280 95.760 C 294.615 95.904,293.884 96.412,293.754 96.820 C 293.686 97.036,293.428 97.165,292.905 97.243 C 291.849 97.401,291.051 97.768,290.745 98.234 C 290.461 98.667,289.430 99.059,288.083 99.246 C 287.418 99.339,287.127 99.489,286.640 99.993 C 286.044 100.609,285.996 100.625,284.603 100.698 C 283.211 100.771,283.156 100.790,282.338 101.480 L 281.499 102.187 279.375 102.277 C 276.979 102.379,275.424 102.699,274.885 103.200 C 274.617 103.449,274.168 103.575,273.205 103.672 C 272.483 103.745,271.585 103.887,271.211 103.988 C 270.764 104.109,268.125 104.166,263.492 104.157 C 255.891 104.142,255.718 104.161,256.150 104.969 C 256.448 105.526,256.777 105.551,264.107 105.567 C 272.311 105.586,271.833 105.483,271.833 107.239 C 271.833 109.097,272.704 108.938,262.448 108.952 C 253.371 108.965,252.833 108.993,252.833 109.450 C 252.833 110.064,253.485 110.333,254.984 110.337 C 267.900 110.372,272.839 110.440,272.978 110.583 C 273.640 111.269,272.901 111.757,270.928 111.938 C 269.326 112.084,268.834 112.287,268.723 112.845 C 268.545 113.731,268.841 113.705,258.459 113.733 C 246.536 113.764,246.370 113.755,246.001 113.083 C 245.602 112.356,245.065 112.168,242.881 111.990 C 240.606 111.805,240.501 111.739,240.311 110.384 C 240.094 108.837,240.281 107.849,240.813 107.734 C 241.054 107.682,241.446 107.566,241.685 107.476 C 242.458 107.185,243.575 107.359,243.635 107.779 C 243.758 108.647,244.249 108.746,248.625 108.793 L 252.667 108.836 252.667 108.361 C 252.667 107.307,252.488 107.278,245.386 107.185 C 244.125 107.168,244.014 107.139,243.907 106.792 C 243.415 105.189,240.463 104.948,239.816 106.457 C 239.649 106.847,239.437 107.167,239.346 107.167 C 238.874 107.167,238.333 108.094,238.326 108.915 C 238.322 109.374,238.211 110.050,238.079 110.417 C 237.679 111.526,237.966 112.033,239.126 112.263 C 239.481 112.334,239.846 112.595,240.181 113.019 L 240.695 113.667 242.942 113.667 C 245.249 113.667,245.833 113.795,245.833 114.303 C 245.833 115.175,245.995 115.188,257.416 115.208 C 268.892 115.228,268.667 115.245,268.667 114.341 C 268.667 113.839,269.045 113.667,270.145 113.667 C 271.944 113.667,271.834 113.243,271.828 120.151 C 271.822 126.958,271.844 126.841,270.631 126.530 C 270.238 126.429,269.678 126.301,269.387 126.246 C 269.096 126.191,268.667 125.954,268.433 125.721 C 267.726 125.014,266.228 124.834,261.000 124.830 C 255.780 124.825,254.949 124.675,255.123 123.767 C 255.205 123.335,255.211 123.333,256.851 123.333 C 258.460 123.333,258.508 123.322,258.971 122.837 C 259.264 122.531,259.842 122.218,260.482 122.019 C 261.862 121.589,262.333 121.076,262.333 120.003 C 262.333 118.927,261.525 118.139,261.225 118.921 C 260.867 119.855,258.858 120.059,249.917 120.072 C 241.684 120.084,241.463 120.067,241.131 119.374 C 240.815 118.714,239.914 118.461,237.474 118.348 C 235.416 118.252,235.355 118.238,234.918 117.767 L 234.470 117.284 234.101 117.713 C 233.898 117.949,233.588 118.410,233.412 118.738 C 233.235 119.065,232.999 119.333,232.887 119.333 C 232.006 119.333,231.608 121.074,232.354 121.668 C 232.640 121.897,233.207 122.365,233.614 122.708 L 234.354 123.333 235.999 123.333 C 237.560 123.333,237.650 123.353,237.759 123.708 C 238.042 124.627,238.394 124.748,240.863 124.775 C 243.237 124.800,244.667 125.110,244.667 125.600 C 244.667 126.065,243.920 126.195,240.777 126.278 C 237.387 126.367,236.293 126.565,235.728 127.193 C 235.218 127.759,234.837 127.816,231.301 127.860 C 227.888 127.901,227.228 128.009,226.750 128.601 C 226.658 128.715,226.325 128.949,226.010 129.121 C 225.695 129.293,225.271 129.730,225.069 130.092 L 224.702 130.750 222.997 131.020 C 221.415 131.271,221.253 131.332,220.760 131.870 C 220.297 132.377,220.077 132.473,219.032 132.628 C 218.065 132.772,217.742 132.899,217.347 133.294 C 216.811 133.830,216.257 134.085,215.266 134.250 C 214.820 134.324,214.415 134.561,213.974 135.007 C 213.467 135.519,213.165 135.678,212.537 135.761 C 211.643 135.879,211.357 136.048,210.927 136.708 C 210.763 136.960,210.482 137.167,210.303 137.167 C 209.862 137.167,209.249 136.823,209.452 136.690 C 209.543 136.632,209.727 136.246,209.862 135.833 C 210.036 135.303,210.249 135.015,210.590 134.848 C 211.116 134.593,211.652 134.030,211.661 133.725 C 211.664 133.619,211.928 133.378,212.248 133.190 C 212.568 133.001,212.978 132.604,213.158 132.308 C 213.338 132.012,213.651 131.681,213.854 131.572 C 214.058 131.463,214.384 131.087,214.581 130.737 C 214.777 130.386,215.158 129.979,215.427 129.832 C 215.696 129.685,216.043 129.316,216.197 129.013 C 216.351 128.709,216.715 128.315,217.006 128.138 C 217.297 127.962,217.614 127.608,217.711 127.352 C 217.807 127.096,218.138 126.714,218.445 126.504 C 218.753 126.293,219.167 125.831,219.366 125.477 C 219.565 125.123,219.778 124.833,219.839 124.833 C 220.029 124.833,220.667 124.219,220.667 124.036 C 220.667 123.939,221.030 123.460,221.473 122.972 C 221.917 122.483,222.411 121.781,222.572 121.412 C 222.734 121.040,223.116 120.576,223.430 120.371 C 223.741 120.167,224.102 119.744,224.233 119.431 C 224.385 119.068,224.682 118.762,225.057 118.585 C 225.418 118.413,225.707 118.123,225.810 117.829 C 225.901 117.567,226.237 117.181,226.556 116.972 C 226.875 116.763,227.254 116.324,227.398 115.996 C 227.543 115.668,227.871 115.245,228.128 115.055 C 228.384 114.866,228.772 114.289,228.989 113.775 C 229.207 113.260,229.521 112.796,229.688 112.743 C 230.063 112.624,230.581 111.902,230.728 111.294 C 230.801 110.995,230.982 110.802,231.255 110.734 C 231.708 110.620,232.333 109.933,232.333 109.549 C 232.333 109.287,232.725 108.833,232.951 108.833 C 233.214 108.833,233.632 108.206,233.742 107.643 C 233.890 106.896,234.179 106.333,234.416 106.333 C 234.726 106.333,235.276 105.633,235.490 104.966 C 235.601 104.618,235.828 104.305,236.010 104.247 C 236.428 104.114,237.167 103.145,237.167 102.730 C 237.167 102.553,237.383 102.218,237.647 101.986 C 237.938 101.731,238.249 101.184,238.438 100.597 C 238.666 99.889,238.862 99.580,239.167 99.447 C 239.883 99.134,240.105 98.776,240.263 97.675 C 240.399 96.734,240.476 96.576,240.917 96.333 C 241.569 95.974,241.828 95.437,241.831 94.437 C 241.833 93.689,241.894 93.567,242.583 92.925 C 243.320 92.239,243.333 92.208,243.333 91.168 C 243.333 89.378,241.858 89.549,257.575 89.516 L 271.305 89.486 271.569 89.864 M169.012 92.046 C 169.006 92.112,169.000 92.317,169.000 92.500 C 169.000 92.683,168.925 92.833,168.833 92.833 C 168.742 92.833,168.667 92.602,168.667 92.319 C 168.667 92.027,168.744 91.831,168.846 91.865 C 168.944 91.898,169.019 91.979,169.012 92.046 M154.655 93.389 C 154.662 93.656,154.589 93.835,154.487 93.801 C 154.389 93.769,154.314 93.687,154.321 93.621 C 154.328 93.554,154.339 93.219,154.345 92.875 C 154.359 92.129,154.635 92.587,154.655 93.389 M298.667 93.583 C 298.667 93.890,298.424 94.025,298.098 93.899 C 297.744 93.763,297.761 93.374,298.125 93.292 C 298.501 93.206,298.667 93.296,298.667 93.583 M226.574 94.279 L 226.440 94.917 226.337 94.333 C 226.212 93.630,226.306 93.239,226.543 93.476 C 226.643 93.577,226.656 93.892,226.574 94.279 M241.041 94.917 C 241.094 95.196,241.046 95.333,240.894 95.333 C 240.763 95.333,240.667 95.157,240.667 94.917 C 240.667 94.688,240.733 94.500,240.814 94.500 C 240.895 94.500,240.997 94.688,241.041 94.917 M104.448 95.197 C 105.300 96.011,106.125 96.163,109.739 96.174 C 113.235 96.185,113.497 96.227,114.202 96.884 C 114.895 97.531,115.939 97.586,126.833 97.556 C 137.350 97.526,137.211 97.537,138.300 96.688 C 139.192 95.994,139.857 95.815,140.848 96.003 C 141.390 96.106,141.957 96.101,142.477 95.989 C 143.020 95.873,143.509 95.873,144.012 95.988 C 146.056 96.460,149.333 95.839,149.333 94.980 C 149.333 94.430,149.688 94.705,150.014 95.508 C 150.191 95.946,150.319 96.695,150.324 97.335 C 150.334 98.460,150.811 99.333,151.418 99.333 C 151.728 99.333,152.027 99.902,151.896 100.243 C 151.737 100.657,151.266 100.833,150.303 100.837 C 149.292 100.841,148.723 101.182,148.638 101.833 L 148.583 102.250 145.417 102.355 C 141.618 102.482,140.333 102.771,140.333 103.499 C 140.333 104.105,139.632 104.157,132.500 104.089 C 128.696 104.053,124.737 103.961,123.702 103.886 C 121.800 103.749,121.770 103.737,121.337 102.987 C 121.129 102.626,119.407 102.359,116.687 102.266 L 114.457 102.189 113.806 101.511 C 113.439 101.129,112.993 100.831,112.785 100.827 C 112.429 100.821,111.888 100.763,110.356 100.567 C 109.823 100.499,109.476 100.320,109.053 99.898 C 108.582 99.426,108.263 99.281,107.295 99.098 C 106.284 98.907,106.038 98.789,105.598 98.284 C 105.173 97.795,104.895 97.655,104.000 97.474 C 103.095 97.292,102.804 97.142,102.231 96.567 C 101.702 96.035,101.373 95.852,100.787 95.764 C 99.879 95.628,99.517 95.297,99.844 94.903 C 100.260 94.402,103.855 94.632,104.448 95.197 M156.194 96.970 C 156.027 97.479,155.796 96.835,155.926 96.221 L 156.060 95.583 156.163 96.167 C 156.220 96.487,156.234 96.849,156.194 96.970 M170.596 96.944 C 170.413 97.422,170.222 96.928,170.312 96.211 L 170.391 95.583 170.550 96.116 C 170.638 96.408,170.658 96.781,170.596 96.944 M239.364 98.556 C 239.200 98.892,239.052 98.358,239.140 97.750 L 239.237 97.083 239.334 97.750 C 239.388 98.117,239.401 98.479,239.364 98.556 M225.000 98.000 C 225.000 98.183,225.006 98.388,225.012 98.454 C 225.019 98.521,224.944 98.602,224.846 98.635 C 224.744 98.669,224.667 98.473,224.667 98.181 C 224.667 97.898,224.742 97.667,224.833 97.667 C 224.925 97.667,225.000 97.817,225.000 98.000 M244.176 99.083 L 244.054 99.750 243.926 99.126 C 243.855 98.783,243.847 98.371,243.910 98.210 C 244.111 97.686,244.312 98.342,244.176 99.083 M157.833 98.597 C 157.833 98.892,157.475 98.840,157.372 98.531 C 157.335 98.422,157.424 98.333,157.569 98.333 C 157.715 98.333,157.833 98.452,157.833 98.597 M172.170 100.223 C 171.933 100.473,171.797 99.993,171.927 99.364 L 172.054 98.750 172.178 99.417 C 172.246 99.783,172.242 100.146,172.170 100.223 M237.833 100.083 C 237.833 100.221,237.763 100.333,237.677 100.333 C 237.466 100.333,237.316 100.073,237.449 99.940 C 237.637 99.752,237.833 99.826,237.833 100.083 M244.742 101.391 C 245.155 101.549,244.887 101.833,244.323 101.833 C 243.802 101.833,243.710 101.559,243.943 100.690 C 244.047 100.301,244.050 100.302,244.256 100.790 C 244.370 101.062,244.589 101.332,244.742 101.391 M223.282 101.792 C 223.240 101.952,223.205 101.821,223.205 101.500 C 223.205 101.179,223.240 101.048,223.282 101.208 C 223.323 101.369,223.323 101.631,223.282 101.792 M159.511 101.904 C 159.330 102.121,159.267 102.124,159.067 101.924 C 158.609 101.467,159.016 100.986,159.486 101.428 C 159.677 101.608,159.682 101.698,159.511 101.904 M236.210 103.390 C 236.059 103.649,235.788 103.191,235.912 102.886 C 236.029 102.601,236.043 102.603,236.164 102.917 C 236.234 103.100,236.255 103.313,236.210 103.390 M173.833 103.083 C 173.833 103.221,173.723 103.333,173.589 103.333 C 173.439 103.333,173.381 103.236,173.440 103.083 C 173.492 102.946,173.603 102.833,173.684 102.833 C 173.766 102.833,173.833 102.946,173.833 103.083 M161.060 103.417 C 161.008 103.554,160.897 103.667,160.816 103.667 C 160.734 103.667,160.667 103.554,160.667 103.417 C 160.667 103.279,160.777 103.167,160.911 103.167 C 161.061 103.167,161.119 103.264,161.060 103.417 M234.727 104.583 C 234.838 104.874,234.694 105.333,234.492 105.333 C 234.256 105.333,234.140 105.013,234.250 104.665 C 234.375 104.272,234.593 104.234,234.727 104.583 M162.667 106.427 C 162.667 106.672,162.468 106.746,162.289 106.567 C 162.139 106.417,162.346 105.988,162.517 106.094 C 162.600 106.145,162.667 106.294,162.667 106.427 M175.361 106.802 L 175.272 107.250 175.164 106.833 C 175.035 106.335,175.151 105.871,175.331 106.163 C 175.396 106.269,175.410 106.556,175.361 106.802 M242.000 106.317 C 242.411 106.433,242.409 106.438,241.850 106.634 C 241.108 106.895,240.751 106.886,240.513 106.600 C 240.193 106.213,241.052 106.050,242.000 106.317 M156.209 107.458 C 156.295 108.145,156.226 108.390,155.988 108.243 C 155.790 108.120,155.784 106.833,155.982 106.833 C 156.063 106.833,156.165 107.115,156.209 107.458 M220.205 108.371 C 220.127 108.671,220.102 108.677,219.962 108.426 C 219.762 108.069,219.949 107.481,220.155 107.815 C 220.231 107.937,220.253 108.187,220.205 108.371 M164.211 107.933 C 164.361 108.083,164.154 108.512,163.983 108.406 C 163.900 108.355,163.833 108.206,163.833 108.073 C 163.833 107.828,164.032 107.754,164.211 107.933 M239.570 110.818 C 239.584 111.614,239.405 111.794,238.938 111.453 C 238.657 111.247,238.655 111.176,238.903 110.218 C 239.048 109.659,239.175 108.988,239.186 108.726 C 239.214 108.050,239.553 109.899,239.570 110.818 M276.225 109.338 C 276.641 109.716,276.139 110.167,275.280 110.186 C 273.784 110.219,273.414 110.085,273.608 109.578 C 273.797 109.087,275.751 108.908,276.225 109.338 M122.529 109.462 C 122.911 109.844,122.364 110.167,121.333 110.167 C 120.238 110.167,119.791 109.869,120.181 109.399 C 120.440 109.088,122.202 109.135,122.529 109.462 M231.667 109.530 C 231.667 109.862,231.222 110.156,231.023 109.956 C 230.773 109.706,230.782 109.379,231.042 109.288 C 231.317 109.193,231.667 109.328,231.667 109.530 M177.000 109.843 C 177.000 110.032,176.925 110.140,176.833 110.083 C 176.742 110.027,176.667 109.872,176.667 109.740 C 176.667 109.608,176.742 109.500,176.833 109.500 C 176.925 109.500,177.000 109.654,177.000 109.843 M157.833 111.093 C 157.833 111.242,157.665 111.333,157.391 111.333 C 156.961 111.333,156.957 111.324,157.246 111.004 C 157.563 110.654,157.833 110.695,157.833 111.093 M218.661 111.511 C 218.466 111.874,218.445 111.878,218.235 111.590 C 217.908 111.144,218.248 110.510,218.616 110.878 C 218.821 111.083,218.829 111.196,218.661 111.511 M229.959 111.042 C 230.074 111.187,230.034 111.343,229.826 111.556 C 229.536 111.854,229.522 111.853,229.355 111.540 C 229.084 111.035,229.608 110.602,229.959 111.042 M167.383 112.557 C 167.431 112.680,167.402 112.886,167.320 113.015 C 167.212 113.186,167.171 113.125,167.169 112.792 C 167.166 112.294,167.248 112.204,167.383 112.557 M178.517 113.049 C 178.383 113.184,178.335 113.100,178.338 112.742 C 178.343 112.311,178.366 112.288,178.522 112.558 C 178.651 112.778,178.649 112.918,178.517 113.049 M169.226 114.586 C 169.108 114.893,168.768 114.906,168.524 114.613 C 168.391 114.452,168.392 114.341,168.529 114.204 C 168.787 113.946,169.352 114.257,169.226 114.586 M217.025 114.417 C 217.025 114.504,216.944 114.602,216.846 114.635 C 216.747 114.668,216.667 114.569,216.667 114.417 C 216.667 114.264,216.747 114.166,216.846 114.199 C 216.944 114.231,217.025 114.330,217.025 114.417 M180.205 116.223 C 180.044 116.519,179.806 116.016,179.930 115.642 L 180.059 115.250 180.170 115.667 C 180.231 115.896,180.247 116.146,180.205 116.223 M226.583 116.167 C 226.503 116.297,226.407 116.307,226.296 116.196 C 226.204 116.104,226.183 115.941,226.250 115.833 C 226.331 115.703,226.427 115.693,226.538 115.804 C 226.629 115.896,226.650 116.059,226.583 116.167 M170.667 116.073 C 170.667 116.206,170.600 116.355,170.517 116.406 C 170.346 116.512,170.139 116.083,170.289 115.933 C 170.468 115.754,170.667 115.828,170.667 116.073 M225.083 117.583 C 225.083 117.945,224.844 118.054,224.511 117.843 C 224.310 117.717,224.307 117.649,224.494 117.424 C 224.770 117.091,225.083 117.176,225.083 117.583 M181.833 118.917 C 181.833 119.157,181.737 119.333,181.606 119.333 C 181.454 119.333,181.406 119.196,181.459 118.917 C 181.503 118.688,181.605 118.500,181.686 118.500 C 181.767 118.500,181.833 118.688,181.833 118.917 M223.593 119.016 C 223.772 119.305,223.213 119.780,222.975 119.542 C 222.827 119.394,222.832 119.286,222.994 119.090 C 223.246 118.787,223.437 118.764,223.593 119.016 M158.333 119.329 C 158.012 119.382,157.563 119.390,157.333 119.348 L 156.917 119.272 157.321 119.173 C 157.544 119.118,157.994 119.110,158.321 119.154 L 158.917 119.234 158.333 119.329 M162.667 120.250 C 162.667 121.525,162.396 121.828,162.254 120.712 C 162.198 120.274,162.129 119.751,162.101 119.547 C 162.051 119.193,162.280 118.968,162.542 119.116 C 162.610 119.155,162.667 119.665,162.667 120.250 M213.833 119.583 C 213.833 119.813,213.767 120.000,213.686 120.000 C 213.605 120.000,213.503 119.813,213.459 119.583 C 213.406 119.304,213.454 119.167,213.606 119.167 C 213.737 119.167,213.833 119.343,213.833 119.583 M261.125 120.373 C 261.700 120.836,260.974 121.475,259.631 121.687 C 259.165 121.761,258.627 121.968,258.434 122.148 C 257.718 122.816,256.122 122.833,256.537 122.169 C 256.649 121.990,256.942 121.799,257.188 121.745 C 257.479 121.681,257.671 121.505,257.737 121.243 C 257.799 120.997,258.001 120.798,258.253 120.734 C 258.480 120.677,258.667 120.571,258.667 120.498 C 258.667 120.083,260.640 119.982,261.125 120.373 M137.597 120.458 C 137.876 120.619,138.463 121.139,138.899 121.615 L 139.693 122.480 139.079 122.595 C 138.542 122.696,138.419 122.654,138.107 122.267 C 137.826 121.919,137.520 121.788,136.668 121.652 C 134.943 121.377,134.375 120.982,134.921 120.436 C 135.297 120.060,136.926 120.073,137.597 120.458 M241.012 120.631 C 241.348 121.592,241.676 121.640,247.917 121.629 C 254.210 121.617,254.833 121.702,254.833 122.565 C 254.833 122.793,254.751 123.031,254.651 123.093 C 254.386 123.257,243.876 123.362,240.800 123.232 L 238.183 123.121 238.021 122.655 C 237.772 121.942,236.959 121.596,235.520 121.589 C 234.120 121.583,233.612 121.224,233.994 120.512 C 234.171 120.180,234.310 120.167,237.515 120.167 L 240.851 120.167 241.012 120.631 M233.106 120.583 C 233.284 121.047,233.029 121.434,232.738 121.143 C 232.598 121.002,232.535 120.770,232.595 120.613 C 232.728 120.266,232.979 120.251,233.106 120.583 M221.833 120.917 C 221.833 121.054,221.758 121.167,221.667 121.167 C 221.575 121.167,221.500 121.054,221.500 120.917 C 221.500 120.779,221.575 120.667,221.667 120.667 C 221.758 120.667,221.833 120.779,221.833 120.917 M175.667 122.425 C 175.667 122.724,175.421 122.857,175.098 122.733 C 174.783 122.612,174.747 122.225,175.042 122.122 C 175.348 122.015,175.667 122.170,175.667 122.425 M212.221 122.600 C 212.156 122.767,212.066 122.799,211.959 122.692 C 211.768 122.502,211.953 122.118,212.171 122.253 C 212.252 122.303,212.275 122.459,212.221 122.600 M236.329 122.327 C 236.721 122.575,236.119 122.729,235.374 122.572 L 234.750 122.440 235.333 122.325 C 235.654 122.262,235.954 122.202,236.000 122.191 C 236.046 122.180,236.194 122.242,236.329 122.327 M177.148 123.895 C 177.435 124.239,177.010 124.542,176.630 124.264 C 176.413 124.105,176.391 124.009,176.539 123.861 C 176.791 123.609,176.917 123.616,177.148 123.895 M185.222 123.904 C 185.363 124.272,184.969 124.511,184.630 124.264 C 184.413 124.105,184.391 124.009,184.539 123.861 C 184.803 123.597,185.112 123.617,185.222 123.904 M210.667 125.510 C 210.667 125.688,210.592 125.833,210.500 125.833 C 210.408 125.833,210.333 125.641,210.333 125.407 C 210.333 125.165,210.405 125.025,210.500 125.083 C 210.592 125.140,210.667 125.332,210.667 125.510 M178.738 125.887 C 178.606 126.233,178.436 126.242,178.167 125.917 C 178.001 125.717,178.002 125.615,178.174 125.408 C 178.450 125.075,178.903 125.458,178.738 125.887 M186.606 127.251 C 186.417 127.745,186.238 127.369,186.314 126.637 L 186.390 125.917 186.550 126.449 C 186.638 126.742,186.663 127.103,186.606 127.251 M180.221 127.433 C 180.156 127.600,180.066 127.632,179.959 127.526 C 179.768 127.335,179.953 126.951,180.171 127.086 C 180.252 127.136,180.275 127.292,180.221 127.433 M209.060 127.417 C 209.008 127.554,208.897 127.667,208.816 127.667 C 208.734 127.667,208.667 127.554,208.667 127.417 C 208.667 127.279,208.777 127.167,208.911 127.167 C 209.061 127.167,209.119 127.264,209.060 127.417 M123.167 127.717 C 123.167 127.958,123.978 128.411,124.133 128.256 C 124.182 128.207,124.149 128.167,124.059 128.167 C 123.970 128.167,123.732 128.014,123.531 127.827 C 123.275 127.588,123.167 127.555,123.167 127.717 M188.250 128.665 C 188.427 129.223,187.978 129.617,187.773 129.083 C 187.662 128.794,187.805 128.333,188.007 128.333 C 188.082 128.333,188.192 128.483,188.250 128.665 M215.515 129.065 C 215.289 129.337,214.833 129.249,214.833 128.932 C 214.833 128.823,214.924 128.643,215.035 128.532 C 215.348 128.219,215.800 128.721,215.515 129.065 M166.230 130.086 C 166.951 130.387,166.995 130.614,166.377 130.849 C 165.297 131.259,163.971 130.613,164.952 130.155 C 165.299 129.993,165.593 129.854,165.605 129.847 C 165.616 129.839,165.898 129.947,166.230 130.086 M230.833 130.083 C 231.939 130.289,232.036 130.339,231.822 130.597 C 231.522 130.958,229.359 130.926,229.218 130.559 C 229.093 130.234,229.608 129.797,229.991 129.903 C 230.134 129.943,230.512 130.024,230.833 130.083 M207.394 130.536 C 207.251 130.768,207.009 130.504,207.114 130.231 C 207.191 130.029,207.242 130.019,207.346 130.186 C 207.418 130.304,207.440 130.462,207.394 130.536 M213.982 130.605 C 213.734 130.904,213.393 130.896,213.275 130.588 C 213.150 130.262,213.675 129.966,213.959 130.201 C 214.118 130.334,214.124 130.434,213.982 130.605 M212.427 131.849 C 212.603 132.134,212.047 132.614,211.812 132.379 C 211.708 132.275,211.668 132.072,211.723 131.928 C 211.838 131.627,212.260 131.580,212.427 131.849 M205.833 132.083 C 205.833 132.221,205.763 132.333,205.677 132.333 C 205.466 132.333,205.316 132.073,205.449 131.940 C 205.637 131.752,205.833 131.826,205.833 132.083 M191.511 133.904 C 191.330 134.121,191.267 134.124,191.067 133.924 C 190.609 133.467,191.016 132.986,191.486 133.428 C 191.677 133.608,191.682 133.698,191.511 133.904 M210.831 133.559 C 210.826 133.896,210.543 134.213,210.352 134.095 C 210.155 133.973,210.100 133.456,210.266 133.289 C 210.415 133.140,210.834 133.341,210.831 133.559 M204.210 135.390 C 204.059 135.649,203.788 135.191,203.912 134.886 C 204.029 134.601,204.043 134.603,204.164 134.917 C 204.234 135.100,204.255 135.313,204.210 135.390 M186.591 135.322 C 186.427 135.587,186.163 135.371,186.279 135.067 C 186.344 134.900,186.434 134.868,186.541 134.974 C 186.631 135.064,186.653 135.220,186.591 135.322 M193.060 135.417 C 193.008 135.554,192.897 135.667,192.816 135.667 C 192.734 135.667,192.667 135.554,192.667 135.417 C 192.667 135.279,192.777 135.167,192.911 135.167 C 193.061 135.167,193.119 135.264,193.060 135.417 M186.892 136.580 C 187.023 136.919,186.592 137.404,186.270 137.281 C 185.842 137.117,185.737 136.649,186.072 136.404 C 186.399 136.165,186.763 136.243,186.892 136.580 M188.388 136.692 C 188.639 137.090,188.384 137.833,187.997 137.833 C 187.743 137.833,187.667 137.721,187.667 137.347 C 187.667 136.391,188.004 136.085,188.388 136.692 M202.667 136.907 C 202.667 137.039,202.592 137.193,202.500 137.250 C 202.408 137.307,202.333 137.199,202.333 137.010 C 202.333 136.821,202.408 136.667,202.500 136.667 C 202.592 136.667,202.667 136.775,202.667 136.907 M194.672 138.177 C 194.811 138.436,194.804 138.584,194.645 138.776 C 194.321 139.166,193.934 138.601,194.217 138.148 C 194.459 137.760,194.449 137.759,194.672 138.177 M201.060 139.917 C 201.119 140.069,201.061 140.167,200.911 140.167 C 200.777 140.167,200.667 140.054,200.667 139.917 C 200.667 139.779,200.734 139.667,200.816 139.667 C 200.897 139.667,201.008 139.779,201.060 139.917 M196.667 141.604 C 196.667 141.844,196.033 142.021,195.906 141.816 C 195.854 141.732,195.859 141.516,195.916 141.337 C 196.029 140.979,196.667 141.206,196.667 141.604 M201.236 141.268 C 201.588 141.403,201.569 141.602,201.148 142.193 L 200.796 142.687 200.565 142.241 C 200.278 141.689,200.271 141.386,200.542 141.277 C 200.842 141.156,200.941 141.155,201.236 141.268  M -25 0 L -5 0 L -5 20 L -25 20 Z M 405 0 L 425 0 L 425 20 L 405 20 Z" stroke="none" fill="#b4b4b4" fill-rule="evenodd" transform="translate(490,0)"/>

</svg>